<svg width="115" height="53" viewBox="0 0 115 53" fill="none" xmlns="http://www.w3.org/2000/svg">
<path d="M85.9374 25.47C85.9374 25.47 85.8857 25.3665 85.7822 25.2113C85.6269 24.9008 85.3682 24.4351 85.1612 24.1246L84.799 23.4518C84.6955 23.2448 84.592 23.0896 84.592 23.0378C83.4535 20.4504 83.4535 15.8965 83.8157 14.2923L83.971 13.7231C84.1262 13.1021 84.3332 12.2741 84.6955 11.7049C85.2129 10.8769 86.1444 10.3594 86.4032 10.3077C86.5584 10.2559 86.7137 10.2559 86.8689 10.2559C87.4381 10.3077 88.0591 10.5147 88.4731 10.8252C88.8871 11.1874 89.4046 11.9636 89.4563 12.6364C89.5081 13.6196 89.3528 14.3441 88.9389 14.8616C88.7319 15.1203 88.4214 15.379 88.0591 15.5343C87.7486 15.6895 87.3864 15.6895 87.0242 15.586C86.7137 15.4825 86.3514 15.2755 86.0409 14.9133C85.6787 14.5511 85.4199 14.1888 85.3682 14.0336L84.9025 12.8951L85.006 14.1371C85.0577 14.7581 85.2647 15.2755 85.6269 15.6895C85.9374 16.0518 86.3514 16.2588 86.8172 16.3623C86.9207 16.3623 87.0242 16.414 87.1794 16.414C88.0074 16.414 88.7319 16.207 89.3011 15.7413L89.3528 15.6895C90.1291 15.0168 90.5948 13.9301 90.6466 12.6364C90.6466 11.3426 90.2326 10.1524 89.5081 9.47969C88.8871 8.91045 88.0591 8.7552 87.4381 8.65171C87.3864 8.65171 87.2829 8.65171 87.2312 8.65171C86.5067 8.59996 85.5752 8.91045 84.9025 9.37619C84.5402 9.58318 84.0227 10.1524 83.35 11.4979C83.2982 11.6014 83.2465 11.7049 83.2465 11.8084C82.729 13.2056 82.6255 15.8448 82.6255 15.9483C82.5738 16.7245 82.5738 17.5007 82.6255 18.1735C82.2633 17.3972 81.8493 16.3105 81.7458 15.8448C81.694 15.7413 81.6423 15.586 81.6423 15.5343C81.7458 15.2755 81.7975 15.0685 81.901 14.8098C82.522 12.8951 83.4017 9.32444 82.1598 7.20275C81.9528 6.8405 81.2801 6.42651 80.6591 6.63351C80.1933 6.737 79.8311 7.0475 79.5723 7.46149C79.1584 8.18597 79.0031 9.27269 79.1583 10.7734C79.2618 12.2741 79.6758 13.7748 79.8311 14.3441C79.8828 14.5511 79.9346 14.7063 79.9346 14.7581L80.3486 16C80.2968 16.1035 80.2968 16.2588 80.2451 16.414C80.0381 17.0868 79.6758 18.3805 79.3653 19.1049C79.2101 19.5189 78.8996 20.0882 78.5374 20.7609C78.5374 20.6574 78.5891 20.6057 78.5891 20.5022C79.0031 18.7945 79.3653 16.1035 79.0031 14.1371V14.0336C79.0031 13.9301 78.9514 13.8266 78.9514 13.6713C78.8479 13.1021 78.6926 12.3776 78.3821 11.7566C77.9681 10.9804 77.5024 10.3077 76.9849 9.89368C76.3639 9.37619 75.3807 9.11745 75.0702 9.0657C74.5527 9.01395 74.087 9.0657 73.5695 9.16919C73.052 9.27269 72.5345 9.63494 72.1723 10.0489C71.603 10.6182 71.2408 11.6014 71.1373 12.4811C71.0855 13.1021 71.3443 14.6546 71.9653 15.4308C72.2758 15.793 72.638 16.0518 73.1555 16.1553C74.1387 16.4658 75.2772 16.1553 75.9499 15.379C76.1052 15.2238 76.2087 15.0168 76.3122 14.8098L76.5192 14.3958L76.1052 14.4993C75.9499 14.5511 75.7429 14.7063 75.5877 14.8098C75.2772 15.0685 74.8632 15.379 74.1905 15.4308C73.3625 15.5343 72.7933 15.0168 72.431 13.9818C72.1205 12.9986 72.1205 11.7049 72.9485 10.9287C73.673 10.2042 74.7597 10.4112 75.5359 10.6699C76.0017 10.8252 76.9849 11.8084 77.4506 13.4126C77.6576 14.1371 78.0716 16.1035 77.7094 18.2252L77.6059 18.7427C77.5024 19.5707 77.3471 20.5539 77.1402 21.3819C76.9332 22.4169 76.7262 23.1413 76.4674 24.1763L76.1569 25.3665H77.7611H77.9164L77.9681 25.2113C78.0199 25.0561 79.1066 21.7959 79.3653 21.2784C79.7276 20.3987 80.5556 18.484 80.9696 17.1902C81.1248 17.5525 81.2283 17.8112 81.3835 18.1217C81.487 18.3287 81.7458 18.7945 82.0045 19.3119C82.315 19.8812 82.6255 20.5539 82.729 20.7609C82.9878 21.4336 83.8675 23.1413 84.4367 24.1763C84.592 24.4351 84.9542 25.1078 85.0577 25.2113L85.1095 25.3148H86.2997L85.9374 25.47ZM81.073 13.5678C81.0213 13.7231 80.9696 13.8783 80.9696 14.0336C80.7626 13.4643 80.6073 12.8951 80.5038 12.2741C80.3486 11.4461 80.2968 10.6182 80.2968 9.84193V9.73843C80.2968 8.59996 80.4521 7.97897 80.7626 7.82373C80.8143 7.82373 80.8143 7.82373 80.8661 7.82373H80.9178C81.1766 7.97897 81.3835 8.8587 81.4353 9.42794C81.5905 11.0321 81.3318 12.5846 81.073 13.5678Z" fill="white"/>
<path d="M114.813 31.472L114.451 31.1098L113.881 30.5405C113.571 30.2301 113.416 29.6608 113.416 28.8846V24.4342C113.416 22.5712 112.95 21.0188 112.019 19.7251C111.449 18.9488 110.777 18.3278 109.897 17.8621C110.777 17.2411 111.553 16.4649 112.174 15.5334C113.209 13.9292 113.778 12.0145 113.778 9.73756C113.778 6.83964 113.002 4.4592 111.449 2.75149C109.845 0.992032 107.672 0.112305 104.981 0.112305H101.151C100.944 0.112305 100.789 0.267553 100.789 0.474548V31.679C100.789 31.886 100.944 32.0413 101.151 32.0413H104.256C104.463 32.0413 104.618 31.886 104.618 31.679V19.3111H105.291C108.241 19.3111 109.586 20.8118 109.586 24.072V28.8328C109.586 29.8161 109.949 30.5923 110.673 31.1615C111.346 31.679 112.226 31.9895 113.261 31.9895H114.554C114.709 31.9895 114.813 31.886 114.916 31.7825C114.916 31.7825 114.916 31.6273 114.813 31.472ZM109.742 9.78932C109.742 12.118 109.276 13.9292 108.344 15.1712C107.516 16.3097 106.274 16.8789 104.618 16.9306V2.59624C106.481 2.64799 107.723 3.16548 108.448 4.30395C109.276 5.54592 109.742 7.35713 109.742 9.78932Z" fill="white"/>
<path d="M17.9393 0.112305H13.6959L15.7141 8.13336L13.0749 20.967L7.95181 0.940283L7.74482 0.112305H3.39793L5.46788 8.13336L0.758744 30.9545L0.5 32.2483H3.13918L6.91684 13.7222L11.419 29.3503L12.6092 33.9042L13.3854 30.0231L17.1113 13.774L21.717 31.265L22.0275 32.2483H26.3226L18.1981 0.940283L17.9393 0.112305Z" fill="white"/>
<path d="M60.2703 0.112305H56.4926V36.1294C56.4926 38.3546 55.9751 40.735 54.9919 42.8567C52.9737 47.5141 48.2646 50.5155 43.0379 50.5155C40.4505 50.5155 37.9666 49.7911 35.7931 48.4456C31.8085 45.9617 29.3763 41.8218 29.1175 37.0609C28.9105 33.4902 29.9973 30.0231 32.119 27.2804L31.6532 28.9881C31.498 29.6091 31.3427 30.1266 31.291 30.4888C31.1357 31.1615 30.9805 31.886 31.8085 32.1965L31.912 32.2483H33.4644L33.6714 31.6273C33.6714 31.5755 33.7749 31.3168 33.8267 31.1615L33.9302 30.7475C34.0337 30.4371 34.1372 29.9196 34.3959 28.9881C34.6546 27.9531 35.0686 26.4007 35.6896 24.1237C36.7763 23.3992 38.0183 22.8817 39.2603 22.5712C39.4673 22.5195 39.6225 22.4678 39.8295 22.4678L42.3652 32.3H46.6086L46.2464 30.851C46.1946 30.644 46.0911 30.1266 45.6771 28.6776L45.5219 28.0049C45.3149 27.2804 45.1596 26.5042 44.9526 25.7279L44.1764 22.7265C45.7289 23.244 47.1778 24.2272 48.4715 25.6762L48.6268 25.8314L49.817 26.5042L49.2478 25.4692C47.8506 22.8817 45.9359 21.1223 43.5554 20.3461L43.2449 19.1041C42.9862 18.0174 42.5722 16.4132 42.1065 14.6019L39.1568 3.06198C38.6393 1.14728 38.5875 0.836788 38.5875 0.785039L38.3805 0.112305H34.0337L36.6728 10.2033L33.3609 22.5712C26.4783 27.3321 24.3049 38.0441 28.8588 45.0819C31.9637 50.1016 37.1386 52.9995 43.1414 52.9995C49.3513 52.9995 54.9919 49.8428 58.2521 44.5644C59.9598 41.2525 60.529 39.1308 60.6325 35.4049V35.2497C60.6325 34.0077 60.6325 25.7797 60.6842 19.1041V0.112305H60.2703ZM36.4658 20.8118L37.9148 15.3264L39.105 19.9838C38.2771 20.1391 37.3456 20.4496 36.4658 20.8118Z" fill="white"/>
<path d="M77.9159 0.268019L77.502 0.319767L78.1747 2.85545L78.5369 2.80371C79.1062 2.70021 79.6754 2.59671 80.2446 2.54496H80.3999C80.5034 2.54496 80.6069 2.54496 80.7621 2.54496C84.7985 2.54496 88.3692 4.66666 90.5944 8.44431C93.2853 12.9465 93.4406 18.6906 91.0601 23.0374C89.8181 25.6249 87.6965 27.6431 85.1608 28.8333L84.902 28.9368L85.5748 31.6277L85.937 31.4725C90.5426 29.8683 94.165 26.2976 95.8727 21.6402C97.5287 17.1381 97.1147 12.1702 94.6825 8.03033C91.3706 2.18272 84.8503 -0.97395 77.9159 0.268019Z" fill="white"/>
<path d="M82.7287 29.6092C82.0559 29.7644 81.3315 29.8162 80.607 29.8162C78.537 29.8162 76.5706 29.1952 74.8111 28.0567C70.723 25.3658 68.446 20.3462 68.9118 14.9643C69.3258 9.89293 72.0684 5.54604 76.1048 3.63134L76.3636 3.47609L75.6908 0.785156L75.3286 0.9404C71.7579 2.23412 68.8083 4.66631 66.8418 8.02998C63.8921 12.9979 63.8921 19.0007 66.7901 24.1756C69.688 29.2987 74.8629 32.3519 80.607 32.3519C80.9692 32.3519 81.3315 32.3519 81.6937 32.3001C82.2629 32.2484 82.8322 32.1966 83.4014 32.0931L83.8154 32.0414L83.1427 29.4539L82.7287 29.6092Z" fill="white"/>
</svg>
