<svg width="40" height="40" viewBox="0 0 40 40" fill="none" xmlns="http://www.w3.org/2000/svg">
<rect width="40" height="40" rx="20" fill="#22211F"/>
<g filter="url(#filter0_ii_4990_39794)">
<path d="M13.4151 11.3392C17.464 10.9872 21.5358 10.9872 25.5847 11.3392L27.5355 11.5087C28.8341 11.6216 29.9463 12.3962 30.5225 13.5042C30.5963 13.6459 30.541 13.8175 30.4052 13.9016L22.3116 18.9119C20.5758 19.9865 18.3871 20.009 16.6295 18.9704L8.48185 14.1559C8.35021 14.0781 8.28979 13.918 8.34912 13.7771C8.87632 12.5247 10.0616 11.6307 11.4644 11.5087L13.4151 11.3392Z" fill="#F8F8F9"/>
<path d="M8.34249 16.3241C8.14103 16.205 7.88399 16.3331 7.8605 16.5659C7.53276 19.8153 7.61209 23.0954 8.09847 26.3299C8.35489 28.035 9.74654 29.3423 11.4644 29.4916L13.4151 29.6612C17.464 30.0131 21.5358 30.0131 25.5847 29.6612L27.5355 29.4916C29.2533 29.3423 30.645 28.035 30.9014 26.3299C31.4019 23.0012 31.4714 19.6241 31.1096 16.2819C31.0843 16.0475 30.8229 15.9217 30.6223 16.0459L23.3314 20.5593C20.983 22.0131 18.0217 22.0436 15.6438 20.6385L8.34249 16.3241Z" fill="#F8F8F9"/>
</g>
<defs>
<filter id="filter0_ii_4990_39794" x="3" y="5" width="33" height="32" filterUnits="userSpaceOnUse" color-interpolation-filters="sRGB">
<feFlood flood-opacity="0" result="BackgroundImageFix"/>
<feBlend mode="normal" in="SourceGraphic" in2="BackgroundImageFix" result="shape"/>
<feColorMatrix in="SourceAlpha" type="matrix" values="0 0 0 0 0 0 0 0 0 0 0 0 0 0 0 0 0 0 127 0" result="hardAlpha"/>
<feOffset dx="-1" dy="1"/>
<feGaussianBlur stdDeviation="1"/>
<feComposite in2="hardAlpha" operator="arithmetic" k2="-1" k3="1"/>
<feColorMatrix type="matrix" values="0 0 0 0 0.156863 0 0 0 0 0.0980392 0 0 0 0 0.0627451 0 0 0 0.3 0"/>
<feBlend mode="normal" in2="shape" result="effect1_innerShadow_4990_39794"/>
<feColorMatrix in="SourceAlpha" type="matrix" values="0 0 0 0 0 0 0 0 0 0 0 0 0 0 0 0 0 0 127 0" result="hardAlpha"/>
<feOffset dx="1" dy="1"/>
<feGaussianBlur stdDeviation="0.5"/>
<feComposite in2="hardAlpha" operator="arithmetic" k2="-1" k3="1"/>
<feColorMatrix type="matrix" values="0 0 0 0 0.7 0 0 0 0 0.7 0 0 0 0 0.7 0 0 0 0.25 0"/>
<feBlend mode="normal" in2="effect1_innerShadow_4990_39794" result="effect2_innerShadow_4990_39794"/>
</filter>
</defs>
</svg>
