<svg width="40" height="40" viewBox="0 0 40 40" fill="none" xmlns="http://www.w3.org/2000/svg">
<rect width="40" height="40" rx="20" fill="#22211F"/>
<path d="M26.4115 15.032C27.2062 15.032 27.8504 14.3878 27.8504 13.5932C27.8504 12.7985 27.2062 12.1543 26.4115 12.1543C25.6169 12.1543 24.9727 12.7985 24.9727 13.5932C24.9727 14.3878 25.6169 15.032 26.4115 15.032Z" fill="#22211F"/>
<path d="M10 12.5L17.6345 18.2653L17.6371 18.2674C18.4848 18.8891 18.9089 19.2001 19.3734 19.3203C19.784 19.4265 20.2156 19.4265 20.6262 19.3203C21.0912 19.2 21.5165 18.8881 22.3657 18.2653C22.3657 18.2653 27.2626 14.5074 30 12.5M8.75 24.7502V15.2502C8.75 13.8501 8.75 13.1495 9.02248 12.6147C9.26217 12.1443 9.64434 11.7622 10.1147 11.5225C10.6495 11.25 11.3501 11.25 12.7502 11.25H27.2502C28.6504 11.25 29.3495 11.25 29.8842 11.5225C30.3546 11.7622 30.7381 12.1443 30.9778 12.6147C31.25 13.149 31.25 13.8487 31.25 15.2461V24.7545C31.25 26.1519 31.25 26.8506 30.9778 27.3849C30.7381 27.8553 30.3546 28.2381 29.8842 28.4778C29.35 28.75 28.6513 28.75 27.2539 28.75H12.7461C11.3487 28.75 10.649 28.75 10.1147 28.4778C9.64434 28.2381 9.26217 27.8553 9.02248 27.3849C8.75 26.8501 8.75 26.1504 8.75 24.7502Z" stroke="white" stroke-width="2" stroke-linecap="round" stroke-linejoin="round"/>
</svg>
