<svg width="40" height="40" viewBox="0 0 40 40" fill="none" xmlns="http://www.w3.org/2000/svg">
<rect   fill="#22211F"/>
<path  d="M9.05344 19.7879C14.8838 17.2477 18.7717 15.5731 20.717 14.7639C26.2712 12.4538 27.4253 12.0525 28.1776 12.0392C28.343 12.0363 28.7129 12.0773 28.9526 12.2717C29.1549 12.4359 29.2106 12.6577 29.2372 12.8134C29.2639 12.969 29.297 13.3236 29.2707 13.6007C28.9697 16.7632 27.6673 24.4376 27.0047 27.9797C26.7244 29.4784 26.1724 29.9809 25.6379 30.0301C24.4765 30.137 23.5946 29.2626 22.4696 28.5252C20.7094 27.3713 19.7149 26.653 18.0063 25.527C16.0317 24.2258 17.3118 23.5106 18.4371 22.3418C18.7316 22.0359 23.8489 17.3813 23.948 16.9591C23.9603 16.9063 23.9718 16.7094 23.8549 16.6055C23.738 16.5015 23.5654 16.5371 23.4408 16.5653C23.2643 16.6054 20.4522 18.4641 15.0047 22.1413C14.2065 22.6894 13.4835 22.9564 12.8358 22.9425C12.1217 22.927 10.748 22.5387 9.72685 22.2067C8.47435 21.7996 7.47888 21.5844 7.56556 20.8929C7.61071 20.5328 8.10667 20.1644 9.05344 19.7879Z" fill="white"/>
</svg>