<svg width="20" height="20" viewBox="0 0 20 20" fill="none" xmlns="http://www.w3.org/2000/svg">
<path d="M6 1C6.5 1 8.5 5.5 8.5 6C8.5 7 7 8 6.5 9C6 10 7 11 8 12C8.39 12.39 10 14 11 13.5C12 13 13 11.5 14 11.5C14.5 11.5 19 13.5 19 14C19 16 17.5 17.5 16 18C14.5 18.5 13.5 18.5 11.5 18C9.5 17.5 8 17 5.5 14.5C3 12 2.5 10.5 2 8.5C1.5 6.5 1.5 5.5 2 4C2.5 2.5 4 1 6 1Z" stroke="white" stroke-width="2" stroke-linecap="round" stroke-linejoin="round"/>
<path d="M12 5.04004C12.66 5.35004 13.26 5.77004 13.76 6.28004C14.25 6.77004 14.66 7.36004 14.96 8.00004" stroke="white" stroke-width="2" stroke-linecap="round" stroke-linejoin="round"/>
<path d="M13 1.25C14.41 1.62 15.67 2.35 16.67 3.35C17.66 4.35 18.39 5.6 18.75 7" stroke="white" stroke-width="2" stroke-linecap="round" stroke-linejoin="round"/>
</svg>
