<svg width="10" height="14" viewBox="0 0 10 14" fill="none" xmlns="http://www.w3.org/2000/svg">
<path d="M6.9425 6.25H9.5V4.75H8.24C8.555 4.255 8.75 3.76 8.75 3.25C8.75 1.2775 6.875 0.25 5 0.25C3.2375 0.25 1.6475 1.795 1.4675 1.9675L2.5325 3.0325C2.8925 2.6725 4.0325 1.75 5 1.75C5.78 1.75 7.25 2.065 7.25 3.25C7.25 3.625 6.875 4.18 6.32 4.75H0.5V6.25H4.7225C4.4075 6.52 3.3125 7.5025 3.0575 7.75H0.5V9.25H1.76C1.445 9.745 1.25 10.24 1.25 10.75C1.25 12.7225 3.125 13.75 5 13.75C6.7625 13.75 8.3525 12.205 8.5325 12.0325L7.4675 10.9675C7.115 11.3275 5.9675 12.25 5 12.25C4.22 12.25 2.75 11.935 2.75 10.75C2.75 10.375 3.125 9.82 3.68 9.25H9.5V7.75H5.285L6.9425 6.25Z" fill="#A2A2A2"/>
</svg>
