<svg width="32" height="32" viewBox="0 0 32 32" fill="none" xmlns="http://www.w3.org/2000/svg">
<path d="M32 15.9999C32 7.16338 24.8365 -0.00012207 16 -0.00012207C7.1635 -0.00012207 0 7.16338 0 15.9999C0 23.9859 5.851 30.6053 13.5 31.8055V20.6249H9.4375V15.9999H13.5V12.4749C13.5 8.46488 15.8888 6.24988 19.5435 6.24988C21.294 6.24988 23.125 6.56238 23.125 6.56238V10.4999H21.1075C19.1199 10.4999 18.5 11.7333 18.5 12.9986V15.9999H22.9375L22.2281 20.6249H18.5V31.8055C26.149 30.6053 32 23.986 32 15.9999Z" fill="#1877F2"/>
<path d="M22.2281 20.6249L22.9375 15.9999H18.5V12.9986C18.5 11.7331 19.1199 10.4999 21.1075 10.4999H23.125V6.56238C23.125 6.56238 21.294 6.24988 19.5434 6.24988C15.8888 6.24988 13.5 8.46488 13.5 12.4749V15.9999H9.4375V20.6249H13.5V31.8055C14.327 31.9351 15.1629 32.0001 16 31.9999C16.8371 32.0001 17.673 31.9351 18.5 31.8055V20.6249H22.2281Z" fill="white"/>
</svg>
