<svg width="74" height="34" viewBox="0 0 74 34" fill="none" xmlns="http://www.w3.org/2000/svg">
<path d="M73.9334 20.1701L73.6991 19.9379L73.3309 19.5731C73.1301 19.3741 73.0297 19.0093 73.0297 18.5118V15.6597C73.0297 14.4989 72.7285 13.4708 72.1261 12.6417C71.7579 12.1442 71.3228 11.7462 70.7538 11.4477C71.3228 11.0498 71.8248 10.5523 72.2265 9.95533C72.8958 8.92723 73.264 7.70014 73.264 6.24089C73.264 4.38367 72.762 2.8581 71.7579 1.76366C70.7204 0.636064 69.3147 0.0722656 67.5743 0.0722656H65.0976C64.9637 0.0722656 64.8633 0.171761 64.8633 0.30442V20.3027C64.8633 20.4354 64.9637 20.5349 65.0976 20.5349H67.1057C67.2396 20.5349 67.34 20.4354 67.34 20.3027V12.3764H67.7751C69.6828 12.3764 70.553 13.3381 70.553 15.4275V18.4787C70.553 19.1088 70.7873 19.6063 71.2559 19.9711C71.691 20.3027 72.2599 20.5017 72.9293 20.5017H73.766C73.8664 20.5017 73.9334 20.4354 74.0003 20.369C74.0003 20.369 74.0003 20.2695 73.9334 20.1701ZM70.6534 6.27406C70.6534 7.76647 70.3522 8.92723 69.7498 9.72318C69.2143 10.4528 68.411 10.8176 67.34 10.8508V1.66417C68.5449 1.69734 69.3481 2.02898 69.8167 2.7586C70.3522 3.55455 70.6534 4.71532 70.6534 6.27406Z" fill="black"/>
<path d="M11.2791 0.0722656H8.5346L9.83989 5.21279L8.13297 13.4376L4.81954 0.6029L4.68566 0.0722656H1.87426L3.21302 5.21279L0.167345 19.8384L0 20.6675H1.70692L4.15016 8.79457L7.06196 18.8103L7.83175 21.7288L8.33378 19.2414L10.7436 8.82774L13.7223 20.0374L13.9231 20.6675H16.701L11.4464 0.6029L11.2791 0.0722656Z" fill="black"/>
<path d="M50.0685 0.171768L49.8008 0.204932L50.2359 1.83L50.4702 1.79684C50.8383 1.73051 51.2065 1.66418 51.5746 1.63101H51.7085C51.7755 1.63101 51.8424 1.63101 51.9093 1.63101C54.5199 1.63101 56.8293 2.99076 58.2684 5.41178C60.0088 8.29711 60.1092 11.9784 58.5697 14.7642C57.7664 16.4225 56.3942 17.7159 54.7542 18.4787L54.5869 18.545L55.022 20.2696L55.2562 20.1701C58.235 19.142 60.5778 16.8536 61.6823 13.8688C62.7533 10.9834 62.4855 7.79964 60.9125 5.14647C58.7705 1.39886 54.5534 -0.624184 50.0685 0.171768Z" fill="black"/>
<path d="M53.1827 18.9756C52.7476 19.0751 52.279 19.1083 51.8104 19.1083C50.4717 19.1083 49.1998 18.7103 48.0619 17.9807C45.4178 16.2561 43.9452 13.0392 44.2464 9.59005C44.5142 6.33991 46.288 3.55408 48.8986 2.32699L49.066 2.22749L48.6309 0.50293L48.3966 0.602422C46.0872 1.43154 44.1795 2.99028 42.9077 5.14598C40.9999 8.32979 40.9999 12.1769 42.8742 15.4934C44.7485 18.7767 48.0954 20.7334 51.8104 20.7334C52.0447 20.7334 52.279 20.7334 52.5133 20.7002C52.8814 20.667 53.2496 20.6339 53.6178 20.5675L53.8855 20.5344L53.4504 18.8762L53.1827 18.9756Z" fill="black"/>
<path d="M38.8924 22.1609C38.8924 20.6685 38.8924 16.4235 38.9258 12.2779V0.106445H38.6916C38.6916 0.106445 38.6916 0.106445 38.6581 0.106445H36.2148V22.1941H38.8924V22.1609Z" fill="black"/>
<path d="M33.672 29.7888C32.1324 31.4139 29.89 32.3756 27.4802 32.3756C25.8068 32.3756 24.2002 31.9113 22.7946 31.049C20.2174 29.4571 18.6444 26.804 18.477 23.7528C18.3432 21.4645 19.046 19.2424 20.4182 17.4847L20.117 18.5791C20.0166 18.9771 19.9162 19.3088 19.8827 19.5409C19.7823 19.972 19.6819 20.4363 20.2174 20.6353L20.2844 20.6685H21.2884L21.4223 20.2705C21.4223 20.2374 21.4893 20.0715 21.5227 19.972L21.5897 19.7067C21.6566 19.5077 21.7235 19.1761 21.8909 18.5791C22.0582 17.9158 22.326 16.9209 22.7276 15.4616C23.4305 14.9973 24.2337 14.6657 25.037 14.4667C25.1709 14.4335 25.2713 14.4004 25.4051 14.4004L27.0451 20.7017H29.7896L29.5553 19.7731C29.5218 19.6404 29.4549 19.3419 29.2206 18.4796L28.2165 14.5662C29.2206 14.8978 30.1577 15.528 30.9945 16.4566L31.0279 16.4234C31.0279 16.4566 31.0614 16.4566 31.0614 16.4898V16.5229L31.0949 16.5561L31.8647 16.9872L31.4965 16.3239C30.5928 14.6657 29.3545 13.5381 27.8149 13.0406L27.6141 12.2447C27.4467 11.5482 27.179 10.5201 26.8778 9.35935L24.97 2.02996C24.6353 0.736536 24.5684 0.537549 24.5684 0.504384L24.4345 0.0732422H21.6901L23.397 6.54035L21.255 14.4667C16.8036 17.5179 15.3979 24.3829 18.3432 28.9265C20.3513 32.1435 23.6982 34.0007 27.5806 34.0007C31.0949 34.0007 34.3079 32.4751 36.4834 29.8219H33.672V29.7888ZM24.2002 9.82365L24.97 12.8085C24.4011 12.9411 23.8321 13.107 23.2631 13.3391L24.2002 9.82365Z" fill="black"/>
<path d="M34.2415 24.1831C33.9403 23.8846 33.5721 23.7188 33.1705 23.7188H31.3967C31.2293 23.7188 31.1289 23.8182 31.1289 23.9509V27.9307C31.1289 28.0965 31.2293 28.196 31.3967 28.196H31.8318C31.8987 28.196 31.9656 28.1628 31.9991 28.1297C32.0326 28.0965 32.066 28.0302 32.066 27.9638V26.7699H33.137C33.5387 26.7699 33.9068 26.6041 34.1746 26.3056C34.4423 26.0071 34.6097 25.6423 34.6097 25.2443C34.6097 24.8464 34.5093 24.4815 34.2415 24.1831ZM33.1705 25.8745H32.0995V24.6142H33.1705C33.3379 24.6142 33.5052 24.6805 33.6056 24.8132C33.7395 24.9458 33.773 25.1117 33.773 25.2775C33.773 25.4433 33.706 25.576 33.5721 25.7086C33.5052 25.8081 33.3379 25.8745 33.1705 25.8745Z" fill="black"/>
<path d="M38.5915 26.5709C38.8258 26.4383 38.9931 26.2724 39.127 26.0403C39.2943 25.8081 39.3613 25.5096 39.3613 25.2443C39.3613 24.8464 39.2274 24.4815 38.9262 24.1831C38.625 23.8846 38.2568 23.7188 37.8552 23.7188H35.914C35.7466 23.7188 35.6797 23.8182 35.6797 23.9509V27.9307C35.6797 28.0965 35.7801 28.196 35.9474 28.196H36.3825C36.4495 28.196 36.5164 28.1628 36.5499 28.1297C36.5833 28.0965 36.6168 28.0302 36.6168 27.9638V26.7699H37.6209L38.1899 27.9638C38.2903 28.1628 38.4241 28.2291 38.558 28.2291H38.9931C39.127 28.2291 39.1939 28.1628 39.1939 28.0302C39.1939 27.997 39.1939 27.9307 39.1605 27.8975L38.5915 26.5709ZM38.3237 25.6755C38.1899 25.8081 38.056 25.8745 37.8886 25.8745H36.6168V24.6142H37.8886C38.056 24.6142 38.2233 24.6805 38.3237 24.8132C38.4576 24.9458 38.5246 25.1117 38.5246 25.2775C38.4911 25.4102 38.4241 25.5428 38.3237 25.6755Z" fill="black"/>
<path d="M44.9168 25.0784C44.7829 24.7799 44.6155 24.5478 44.4147 24.3156C44.1804 24.0835 43.9462 23.9177 43.6449 23.8182C43.3437 23.6855 43.0425 23.6523 42.7413 23.6523C42.1054 23.6523 41.5364 23.8845 41.0678 24.3488C40.8335 24.581 40.6662 24.8131 40.5658 25.1116C40.4319 25.4101 40.3984 25.7086 40.3984 26.007C40.3984 26.3387 40.4654 26.6372 40.5658 26.9025C40.6997 27.201 40.867 27.4331 41.0678 27.6653C41.2686 27.8974 41.5364 28.0632 41.8376 28.1627C42.1388 28.2622 42.44 28.3286 42.7413 28.3286C43.076 28.3286 43.3772 28.2622 43.6449 28.1627C43.9462 28.0301 44.1804 27.8643 44.4147 27.6653C44.8833 27.201 45.1176 26.6703 45.1176 26.007C45.0841 25.6754 45.0172 25.3769 44.9168 25.0784ZM41.7037 24.9458C42.005 24.6473 42.3396 24.5146 42.7413 24.5146C43.1429 24.5146 43.4776 24.6473 43.7788 24.9458C44.08 25.2443 44.2139 25.5759 44.2139 25.9739C44.2139 26.3718 44.08 26.7035 43.7788 27.002C43.4776 27.3005 43.1429 27.4331 42.7413 27.4331C42.3396 27.4331 42.005 27.3005 41.7037 27.002C41.4025 26.7035 41.2686 26.3718 41.2686 25.9739C41.2686 25.5759 41.4025 25.2443 41.7037 24.9458Z" fill="black"/>
<path d="M49.3341 23.9851V24.4494C49.3341 24.5157 49.3006 24.582 49.2672 24.6152C49.2337 24.6484 49.1668 24.6815 49.0998 24.6815H47.0248V25.6765H48.5978C48.6647 25.6765 48.7317 25.7096 48.7651 25.7428C48.7986 25.776 48.8321 25.8423 48.8321 25.9418V26.4061C48.8321 26.4724 48.7986 26.5388 48.7651 26.5719C48.7317 26.6051 48.6647 26.6383 48.5978 26.6383H47.0248V27.9648C47.0248 28.0643 46.9913 28.1307 46.9578 28.1307C46.9244 28.1638 46.8574 28.197 46.7905 28.197H46.3554C46.255 28.197 46.188 28.1638 46.188 28.1307C46.1546 28.0975 46.1211 28.0312 46.1211 27.9648V23.9851C46.1211 23.8193 46.2215 23.7529 46.3888 23.7529H49.1668C49.2337 23.7529 49.3007 23.7861 49.3341 23.8193C49.3341 23.8524 49.3341 23.9188 49.3341 23.9851Z" fill="black"/>
<path d="M51.3104 24.0182V27.9317C51.3104 28.0975 51.21 28.2302 51.0092 28.2302H50.6411C50.4737 28.2302 50.3398 28.1307 50.3398 27.9317V24.0182C50.3398 23.9188 50.3733 23.8524 50.4402 23.8193C50.5072 23.7529 50.5741 23.7529 50.6411 23.7529H51.0092C51.1096 23.7529 51.1766 23.7861 51.21 23.8193C51.277 23.8524 51.3104 23.9188 51.3104 24.0182Z" fill="black"/>
<path d="M58.4382 27.4332L58.1704 27.0683C58.1369 27.002 58.07 26.9688 58.0031 26.9688C57.9361 26.9688 57.8357 27.002 57.7688 27.0683C57.4676 27.3005 57.1663 27.4332 56.7982 27.4332C56.3965 27.4332 56.0619 27.3005 55.7606 27.002C55.4594 26.7035 55.3255 26.3719 55.3255 25.9739C55.3255 25.5759 55.4594 25.2443 55.7606 24.9458C56.0619 24.6473 56.3965 24.5147 56.7982 24.5147C57.0994 24.5147 57.4006 24.6473 57.7353 24.8795C57.8022 24.9458 57.8692 24.979 57.9361 24.979C58.0031 24.979 58.07 24.9458 58.1035 24.9126L58.3377 24.5478C58.3712 24.5147 58.3712 24.4483 58.3712 24.4152C58.3712 24.3157 58.3043 24.2493 58.1704 24.1499C57.7018 23.8514 57.2333 23.6855 56.7647 23.6855C56.1288 23.6855 55.5598 23.9177 55.0913 24.382C54.857 24.6142 54.6896 24.8463 54.5892 25.1448C54.4888 25.4433 54.4219 25.7418 54.4219 26.0402C54.4219 26.3719 54.4888 26.6704 54.5892 26.9357C54.7231 27.2342 54.8904 27.4663 55.0913 27.6985C55.2921 27.9306 55.5598 28.0964 55.861 28.1959C56.1623 28.2954 56.4635 28.3618 56.7647 28.3618C57.2667 28.3618 57.7688 28.1959 58.2373 27.8643C58.2708 27.8311 58.3043 27.8311 58.3377 27.7648C58.4047 27.6985 58.4047 27.6321 58.4047 27.599C58.4047 27.5658 58.4716 27.4663 58.4382 27.4332Z" fill="black"/>
<path d="M63.9956 27.9297V27.8634L62.3556 23.9168C62.3556 23.8836 62.3221 23.8505 62.2887 23.8173C62.2552 23.7841 62.1883 23.751 62.0879 23.751H61.7866C61.6528 23.751 61.5524 23.8173 61.5189 23.9168L59.8789 27.8966V27.9297C59.8789 27.9297 59.8789 27.9629 59.8789 28.0292C59.8789 28.0624 59.9124 28.2282 60.1467 28.2282H60.6152C60.7491 28.2282 60.8495 28.1619 60.9164 28.0292L61.1507 27.4323H62.8576L62.9581 27.6976L63.025 27.8302C63.025 27.8634 63.0585 27.9297 63.0919 27.9961C63.1923 28.1619 63.2927 28.195 63.3932 28.195H63.8617C64.096 28.195 64.1295 28.0292 64.1295 27.9961L63.9956 27.9297ZM62.3891 26.4705H61.4519L61.9205 25.2434L62.3891 26.4705Z" fill="black"/>
<path d="M68.2751 26.5709C68.5094 26.4383 68.6767 26.2724 68.8106 26.0403C68.9445 25.8081 69.0449 25.5096 69.0449 25.2443C69.0449 24.8464 68.911 24.4815 68.6098 24.1831C68.3086 23.8846 67.9404 23.7188 67.5388 23.7188H65.5976C65.4302 23.7188 65.3633 23.8182 65.3633 23.9509V27.9307C65.3633 28.0965 65.4637 28.196 65.631 28.196H66.0661C66.1331 28.196 66.2 28.1628 66.2335 28.1297C66.2669 28.0965 66.3004 28.0302 66.3004 27.9638V26.7699H67.3045L67.8735 27.9638C67.9739 28.1628 68.1077 28.2291 68.2416 28.2291H68.6767C68.8106 28.2291 68.8775 28.1628 68.8775 28.0302C68.8775 27.997 68.8775 27.9307 68.8441 27.8975L68.2751 26.5709ZM68.0073 25.6755C67.8735 25.8081 67.7396 25.8745 67.5722 25.8745H66.3004V24.6142H67.5722C67.7396 24.6142 67.9069 24.6805 68.0073 24.8132C68.1412 24.9458 68.1747 25.1117 68.1747 25.2775C68.1747 25.4102 68.1412 25.5428 68.0073 25.6755Z" fill="black"/>
<path d="M73.7688 27.4986V27.9629C73.7688 28.0292 73.7353 28.0955 73.7018 28.1287C73.6684 28.1619 73.6014 28.195 73.5345 28.195H70.6227C70.4888 28.195 70.4219 28.0955 70.4219 27.9629V23.9831C70.4219 23.8173 70.5223 23.751 70.6896 23.751H73.4676C73.5345 23.751 73.6014 23.7841 73.6349 23.8173C73.6684 23.8505 73.7018 23.9168 73.7018 23.9831V24.4474C73.7018 24.5138 73.6684 24.5801 73.6349 24.6133C73.6014 24.6464 73.5345 24.6796 73.4676 24.6796H71.3925V25.5419H73.0659C73.1329 25.5419 73.1998 25.575 73.2333 25.6082C73.2667 25.6414 73.3002 25.7077 73.3002 25.774V26.2383C73.3002 26.3047 73.2667 26.371 73.2333 26.4041C73.1998 26.4373 73.1329 26.4705 73.0659 26.4705H71.3925V27.2333H73.568C73.6349 27.2333 73.7018 27.2664 73.7353 27.2996C73.7353 27.3659 73.7688 27.4323 73.7688 27.4986Z" fill="black"/>
<path d="M57.5341 6.10857C57.1325 5.74376 56.597 5.64427 56.1953 5.57794C56.1619 5.57794 56.0949 5.57794 56.0615 5.57794C55.5929 5.54477 54.9905 5.74376 54.5554 6.04224C54.3211 6.1749 53.9864 6.53971 53.5513 7.40199C53.5178 7.46832 53.4843 7.53465 53.4843 7.60098C53.1497 8.49643 53.0827 10.1878 53.0827 10.2542C53.0493 10.7516 53.0493 11.2491 53.0827 11.6802C52.8484 11.1828 52.5807 10.4863 52.5138 10.1878C52.4803 10.1215 52.4803 10.022 52.4468 9.98884C52.5137 9.82301 52.5472 9.69036 52.6142 9.52453C53.0158 8.29744 53.5848 6.00908 52.7815 4.64933C52.6476 4.41717 52.2125 4.15186 51.8109 4.28452C51.5097 4.35085 51.2754 4.54983 51.108 4.81515C50.8403 5.27946 50.7399 5.97591 50.8403 6.93769C50.9072 7.93263 51.175 8.86124 51.2754 9.22605C51.3089 9.35871 51.3423 9.4582 51.3423 9.49137L51.6101 10.2873C51.5766 10.3536 51.5766 10.4531 51.5431 10.5526C51.4093 10.9838 51.175 11.8129 50.9742 12.2772C50.8403 12.6088 50.606 13.04 50.4387 13.3385C50.4387 13.2721 50.4721 13.239 50.4721 13.1726C50.7399 12.0782 50.9742 10.3537 50.7399 9.09339V9.02706C50.7399 8.96074 50.7064 8.86124 50.7064 8.79491C50.6395 8.4301 50.5391 7.96579 50.3383 7.56782C50.0705 7.07035 49.7693 6.63921 49.4346 6.37389C49.033 6.04224 48.3971 5.87642 48.1962 5.84325C47.8616 5.81009 47.5603 5.84325 47.2256 5.90958C46.891 5.97591 46.5563 6.20807 46.322 6.47338C45.9538 6.8382 45.7195 7.46833 45.6526 8.03212C45.6191 8.4301 45.7865 9.42504 46.1881 9.92251C46.3889 10.1547 46.6232 10.3205 46.9579 10.3868C47.6273 10.5858 48.3301 10.3868 48.7652 9.88934C48.8656 9.78985 48.9326 9.65719 48.9995 9.52453L49.1334 9.25922L48.8656 9.32554C48.7652 9.35871 48.6313 9.45821 48.5309 9.52453C48.3301 9.69036 48.0624 9.88935 47.6273 9.92251C47.0918 9.98884 46.7236 9.65719 46.4893 8.9939C46.2885 8.36377 46.2885 7.53465 46.824 7.03718C47.2926 6.57288 47.9954 6.70554 48.4975 6.87136C48.7987 6.97085 49.4346 7.60098 49.7358 8.62908C49.8697 9.09339 50.1374 10.3536 49.9032 11.7134L49.8362 12.045C49.7693 12.5757 49.6689 13.2058 49.535 13.7364C49.4011 14.3997 49.2673 14.864 49.0999 15.5273L48.8991 16.2901H49.9366H50.037L50.0705 16.1906C50.104 16.0911 50.8068 14.0018 50.9742 13.6701C51.2085 13.1063 51.744 11.8792 52.0117 11.0501C52.1121 11.2823 52.1791 11.4481 52.2795 11.6471C52.3464 11.7797 52.5138 12.0782 52.6811 12.4099C52.8819 12.7747 53.0827 13.2058 53.1497 13.3385C53.317 13.7696 53.886 14.864 54.2541 15.5273C54.3545 15.6932 54.5888 16.1243 54.6558 16.1906L54.6892 16.257H55.4925L55.3921 16.0911C55.3921 16.0911 55.3586 16.0248 55.3251 15.9585C55.2247 15.7595 55.0239 15.4278 54.9235 15.1957L54.6892 14.7314C54.6223 14.6319 54.5888 14.5324 54.5888 14.5324C53.8525 12.8742 53.8525 9.95567 54.0868 8.92757L54.1872 8.56276C54.2876 8.16478 54.4215 7.63415 54.6558 7.26934C54.9905 6.7387 55.5929 6.40705 55.7602 6.37389C55.8607 6.34072 55.9611 6.34072 56.0615 6.34072C56.4296 6.37389 56.8313 6.50655 57.099 6.70554C57.3668 6.93769 57.7014 7.43516 57.7349 7.8663C57.7684 8.49643 57.668 8.96073 57.4002 9.29238C57.2663 9.4582 57.0655 9.62403 56.8313 9.72352C56.6304 9.82301 56.3962 9.82302 56.1619 9.75669C55.9611 9.69036 55.7268 9.5577 55.526 9.32554C55.2917 9.09339 55.1243 8.86124 55.0909 8.76175L54.7896 8.03212L54.8566 8.82807C54.8901 9.22605 55.0239 9.5577 55.2582 9.82301C55.459 10.0552 55.7268 10.1878 56.028 10.2542C56.0949 10.2542 56.1619 10.2873 56.2623 10.2873C56.7643 10.2873 57.2663 10.1547 57.6345 9.85618L57.668 9.82301C58.17 9.39187 58.4712 8.69542 58.5047 7.8663C58.2704 7.3025 58.0027 6.53971 57.5341 6.10857ZM52.1121 8.69542C52.0786 8.79491 52.0452 8.8944 52.0452 8.9939C51.8778 8.56276 51.8109 8.13162 51.744 7.8663C51.6436 7.33567 51.6101 6.80503 51.6101 6.30756V6.24123C51.6101 5.51161 51.7105 5.11363 51.9113 5.01414C51.9448 5.01414 51.9448 5.01414 51.9782 5.01414H52.0117C52.1791 5.11363 52.3129 5.6111 52.3464 6.04224C52.4468 7.07035 52.2795 8.03212 52.1121 8.69542Z" fill="black"/>
</svg>
