<svg width="22" height="21" viewBox="0 0 22 21" fill="none" xmlns="http://www.w3.org/2000/svg">
<path d="M8.29488 15.7052C8.29488 15.7052 7.22772 12.1944 9.18418 10.0781C10.017 9.3562 10.9319 8.7437 11.9082 8.25441C11.9069 7.36673 12.1489 6.49712 12.6057 5.74782C13.0626 4.99851 13.7153 4.40068 14.4871 4.0246C15.2589 3.64852 16.1177 3.50983 16.9626 3.62485C17.8074 3.73987 18.6032 4.10381 19.2563 4.67387C19.9095 5.24393 20.3928 5.99642 20.6495 6.84286C20.9062 7.6893 20.9255 8.5945 20.7053 9.45201C20.4851 10.3095 20.0345 11.0837 19.4064 11.6835C18.7783 12.2834 17.9989 12.6839 17.1598 12.838C15.4467 15.5395 11.7023 20.3571 6.55373 20.3571C3.82032 20.3571 1.14307 12.0286 1.14307 8.25441V3.71954C1.1447 3.1564 1.35317 2.61527 1.7257 2.20722C2.09822 1.79917 2.60654 1.55515 3.14632 1.52525C4.76578 1.43748 6.89073 1.52525 7.39622 2.66628C8.16383 4.33394 6.50693 7.32793 4.71897 7.32793C4.71897 8.79079 6.43204 11.9701 7.98597 13.7255" stroke="black" stroke-width="1.2" stroke-miterlimit="10"/>
</svg>