<svg width="25" height="25" viewBox="0 0 25 25" fill="none" xmlns="http://www.w3.org/2000/svg">
<path d="M13.8955 12.2525C13.8907 10.5368 14.5647 8.88876 15.7705 7.66817L20.1393 3.29942C20.3141 3.1194 20.5232 2.97628 20.7543 2.87855C20.9853 2.78083 21.2337 2.73047 21.4846 2.73047C21.7355 2.73047 21.9838 2.78083 22.2149 2.87855C22.446 2.97628 22.6551 3.1194 22.8299 3.29942C23.0099 3.47419 23.153 3.68331 23.2508 3.9144C23.3485 4.14548 23.3989 4.39383 23.3989 4.64473C23.3989 4.89564 23.3485 5.14399 23.2508 5.37507C23.153 5.60616 23.0099 5.81528 22.8299 5.99005L18.4799 10.3775C17.2599 11.5842 15.6115 12.2584 13.8955 12.2525Z" stroke="black" stroke-width="1.2" stroke-miterlimit="10"/>
<path d="M15.0206 3.32812H6.07686C5.60656 3.32813 5.14087 3.42076 4.70637 3.60073C4.27187 3.78071 3.87708 4.0445 3.54453 4.37705C2.87291 5.04866 2.49561 5.95957 2.49561 6.90938V15.8531C2.49561 16.8029 2.87291 17.7138 3.54453 18.3855C4.21614 19.0571 5.12705 19.4344 6.07686 19.4344H9.65811L12.3394 22.1156L15.0206 19.4344H18.6019C19.5517 19.4344 20.4626 19.0571 21.1342 18.3855C21.8058 17.7138 22.1831 16.8029 22.1831 15.8531V10.4813" stroke="black" stroke-width="1.2" stroke-miterlimit="10"/>
</svg>