<svg width="25" height="25" viewBox="0 0 25 25" fill="none" xmlns="http://www.w3.org/2000/svg">
<path d="M17.7969 5.00781V15.6016" stroke="black" stroke-width="1.2" stroke-miterlimit="10"/>
<path d="M13.2783 8.42891L17.7971 3.91016L22.3158 8.42891" stroke="black" stroke-width="1.2" stroke-miterlimit="10"/>
<path d="M15.8375 22.6617C16.2262 22.6607 16.6086 22.5634 16.9505 22.3785C17.2924 22.1937 17.5832 21.927 17.7969 21.6023C18.0762 22.0224 18.4832 22.3416 18.9577 22.5128C19.4323 22.684 19.9492 22.6981 20.4324 22.5532C20.9156 22.4082 21.3394 22.1118 21.6414 21.7077C21.9433 21.3035 22.1074 20.8131 22.1094 20.3086C22.1094 16.7742 17.7969 15.6211 17.7969 15.6211C17.7969 15.6211 13.4844 16.793 13.4844 20.3086C13.4844 20.9327 13.7323 21.5312 14.1736 21.9725C14.6149 22.4138 15.2134 22.6617 15.8375 22.6617Z" stroke="black" stroke-width="1.2" stroke-miterlimit="10"/>
<path d="M7.20312 21.5625V10.9688" stroke="black" stroke-width="1.2" stroke-miterlimit="10"/>
<path d="M11.7221 18.1406L7.20332 22.6594L2.68457 18.1406" stroke="black" stroke-width="1.2" stroke-miterlimit="10"/>
<path d="M9.1625 3.91019C8.77482 3.91101 8.3933 4.00722 8.0516 4.19034C7.70989 4.37345 7.4185 4.63784 7.20312 4.96019C6.92332 4.53947 6.51553 4.21999 6.04008 4.049C5.56463 3.87801 5.04676 3.8646 4.56309 4.01075C4.07943 4.1569 3.65565 4.45485 3.35445 4.86052C3.05324 5.2662 2.89062 5.75805 2.89063 6.26331C2.89063 9.79769 7.20312 10.9508 7.20312 10.9508C7.20312 10.9508 11.5156 9.77894 11.5156 6.26331C11.5156 5.63923 11.2677 5.0407 10.8264 4.5994C10.3851 4.15811 9.78659 3.91019 9.1625 3.91019Z" stroke="black" stroke-width="1.2" stroke-miterlimit="10"/>
</svg>