<svg width="24" height="25" viewBox="0 0 24 25" fill="none" xmlns="http://www.w3.org/2000/svg">
<path d="M4.455 6.67188V18.9762H11.7739" stroke="black" stroke-width="0.792" stroke-linecap="round" stroke-linejoin="round"/>
<path d="M11.8799 19.0821C11.2435 16.1121 8.26352 16.6153 7.42488 16.1122C6.64774 15.6459 6.89453 14.5211 8.37953 14.839C8.37953 7.79616 6.36417 7.52045 4.45488 6.67188" stroke="black" stroke-width="0.792" stroke-linecap="round" stroke-linejoin="round"/>
<path d="M11.8184 3.10547C10.8637 4.16618 11.211 8.53551 11.0759 10.9548C10.9408 13.374 8.74229 13.9248 8.53015 16.5765C8.53015 19.5465 11.7123 20.6073 11.7123 22.4105" stroke="black" stroke-width="0.792" stroke-linecap="round"/>
<path d="M11.8184 3.10547C12.773 4.16618 12.4258 8.53551 12.5609 10.9548C12.696 13.374 14.8944 13.9248 15.1066 16.5765C15.1066 19.5465 11.9244 20.6073 11.9244 22.4105" stroke="black" stroke-width="0.792" stroke-linecap="round"/>
<path d="M19.3048 6.67188V18.9762H11.9858" stroke="black" stroke-width="0.792" stroke-linecap="round" stroke-linejoin="round"/>
<path d="M11.8799 19.0821C12.5163 16.1121 15.4962 16.6153 16.3349 16.1122C17.112 15.6459 16.8652 14.5211 15.3802 14.839C15.3802 7.79616 17.3956 7.52045 19.3049 6.67188" stroke="black" stroke-width="0.792" stroke-linecap="round" stroke-linejoin="round"/>
</svg>