<svg width="24" height="24" viewBox="0 0 24 24" fill="none" xmlns="http://www.w3.org/2000/svg">
<circle cx="12" cy="12" r="12" fill="#22211F"/>
<path d="M11.712 20.76V19.176C10.6133 19.1227 9.78667 18.7707 9.232 18.12C8.688 17.4587 8.39467 16.4453 8.352 15.08L10.8 14.712C10.8107 15.2667 10.8587 15.7147 10.944 16.056C11.0293 16.3973 11.152 16.6427 11.312 16.792C11.4827 16.9413 11.6853 17.016 11.92 17.016C12.2187 17.016 12.4107 16.9147 12.496 16.712C12.592 16.5093 12.64 16.296 12.64 16.072C12.64 15.5387 12.512 15.0907 12.256 14.728C12.0107 14.3547 11.6693 13.9813 11.232 13.608L10.096 12.632C9.776 12.344 9.48267 12.0507 9.216 11.752C8.96 11.4427 8.752 11.0907 8.592 10.696C8.432 10.2907 8.352 9.81067 8.352 9.256C8.352 8.24267 8.64 7.448 9.216 6.872C9.80267 6.296 10.5867 5.97067 11.568 5.896V4.376H12.384V5.88C13.0027 5.912 13.4987 6.056 13.872 6.312C14.2453 6.55733 14.5227 6.86667 14.704 7.24C14.896 7.60267 15.024 7.992 15.088 8.408C15.1627 8.81333 15.2053 9.192 15.216 9.544L12.736 9.848C12.7253 9.464 12.6987 9.128 12.656 8.84C12.624 8.552 12.5493 8.33333 12.432 8.184C12.3253 8.024 12.1493 7.94933 11.904 7.96C11.6373 7.96 11.44 8.072 11.312 8.296C11.184 8.52 11.12 8.744 11.12 8.968C11.12 9.48 11.248 9.896 11.504 10.216C11.7707 10.5253 12.0587 10.8187 12.368 11.096L13.456 12.04C13.8187 12.3707 14.1493 12.7227 14.448 13.096C14.7573 13.4693 15.0027 13.8853 15.184 14.344C15.3653 14.8027 15.456 15.3307 15.456 15.928C15.456 16.4933 15.3387 17.0107 15.104 17.48C14.8693 17.9493 14.5333 18.3333 14.096 18.632C13.6587 18.92 13.136 19.096 12.528 19.16V20.76H11.712Z" fill="#F8F8F9"/>
</svg>
