<svg width="24" height="17" viewBox="0 0 24 17" fill="none" xmlns="http://www.w3.org/2000/svg">
<path d="M1.33334 16.5C0.95556 16.5 0.639116 16.372 0.384005 16.116C0.128894 15.86 0.000893487 15.5436 4.5977e-06 15.1667C-0.000884291 14.7898 0.127116 14.4733 0.384005 14.2173C0.640894 13.9613 0.957338 13.8333 1.33334 13.8333H22.6667C23.0444 13.8333 23.3613 13.9613 23.6173 14.2173C23.8733 14.4733 24.0009 14.7898 24 15.1667C23.9991 15.5436 23.8711 15.8604 23.616 16.1173C23.3609 16.3742 23.0444 16.5018 22.6667 16.5H1.33334ZM1.33334 9.83333C0.95556 9.83333 0.639116 9.70533 0.384005 9.44933C0.128894 9.19333 0.000893487 8.87689 4.5977e-06 8.5C-0.000884291 8.12311 0.127116 7.80667 0.384005 7.55067C0.640894 7.29467 0.957338 7.16667 1.33334 7.16667H22.6667C23.0444 7.16667 23.3613 7.29467 23.6173 7.55067C23.8733 7.80667 24.0009 8.12311 24 8.5C23.9991 8.87689 23.8711 9.19378 23.616 9.45067C23.3609 9.70756 23.0444 9.83511 22.6667 9.83333H1.33334ZM1.33334 3.16667C0.95556 3.16667 0.639116 3.03867 0.384005 2.78267C0.128894 2.52667 0.000893487 2.21022 4.5977e-06 1.83333C-0.000884291 1.45644 0.127116 1.14 0.384005 0.884C0.640894 0.628 0.957338 0.5 1.33334 0.5H22.6667C23.0444 0.5 23.3613 0.628 23.6173 0.884C23.8733 1.14 24.0009 1.45644 24 1.83333C23.9991 2.21022 23.8711 2.52711 23.616 2.784C23.3609 3.04089 23.0444 3.16844 22.6667 3.16667H1.33334Z" fill="#22211F"/>
</svg>
