<svg width="64" height="64" viewBox="0 0 64 64" fill="none" xmlns="http://www.w3.org/2000/svg">
<g filter="url(#filter0_dd_4664_8779)">
<path d="M32 6C25.6362 6 19.5275 8.53013 15.0312 13.0294C10.5304 17.5304 8.00129 23.6347 8 30C8 36.3626 10.5312 42.4714 15.0312 46.9706C19.5275 51.4699 25.6362 54 32 54C38.3638 54 44.4725 51.4699 48.9688 46.9706C53.4688 42.4714 56 36.3626 56 30C56 23.6374 53.4688 17.5286 48.9688 13.0294C44.4725 8.53013 38.3638 6 32 6Z" fill="#6D19DA"/>
<rect x="35.1611" y="26.4512" width="1.93548" height="1.93548" rx="0.96774" transform="rotate(90 35.1611 26.4512)" fill="white"/>
<rect x="30" y="26.4512" width="1.93548" height="1.93548" rx="0.96774" transform="rotate(90 30 26.4512)" fill="white"/>
<path d="M31.2064 36.8328C32.0725 36.8328 32.7746 37.5418 32.7746 38.4164C32.7746 39.291 32.0725 40 31.2064 40C30.3403 40 29.6382 39.291 29.6382 38.4164C29.6382 37.5418 30.3403 36.8328 31.2064 36.8328Z" fill="white"/>
<path d="M24.1818 27.0381C24.1818 26.6494 23.8698 26.3343 23.4848 26.3343H23.1364C21.4042 26.3343 20 27.7523 20 29.5014C20 31.2506 21.4042 32.6686 23.1364 32.6686H23.4848C23.8698 32.6686 24.1818 32.3535 24.1818 31.9648V27.0381Z" fill="white"/>
<path d="M38.8182 27.0381C38.8182 26.6494 39.1302 26.3343 39.5152 26.3343H39.8636C41.5958 26.3343 43 27.7523 43 29.5014C43 31.2506 41.5958 32.6686 39.8636 32.6686H39.5152C39.1302 32.6686 38.8182 32.3535 38.8182 31.9648V27.0381Z" fill="white"/>
<path d="M24.1818 28.9736V27.39C24.1818 23.3086 27.4582 20 31.5 20C35.5417 20 38.8182 23.3086 38.8182 27.39V28.9736M32.7778 38.4164C33.3853 38.4417 34.001 38.4143 34.5741 38.2093C37.0868 37.3108 38.818 34.8979 38.818 32.1407M29.6382 38.4164C29.6382 37.5418 30.3403 36.8328 31.2064 36.8328C32.0725 36.8328 32.7746 37.5418 32.7746 38.4164C32.7746 39.291 32.0725 40 31.2064 40C30.3403 40 29.6382 39.291 29.6382 38.4164ZM23.4848 32.6686H23.1364C21.4042 32.6686 20 31.2506 20 29.5014C20 27.7523 21.4042 26.3343 23.1364 26.3343H23.4848C23.8698 26.3343 24.1818 26.6494 24.1818 27.0381V31.9648C24.1818 32.3535 23.8698 32.6686 23.4848 32.6686ZM39.5152 32.6686H39.8636C41.5958 32.6686 43 31.2506 43 29.5014C43 27.7523 41.5958 26.3343 39.8636 26.3343H39.5152C39.1302 26.3343 38.8182 26.6494 38.8182 27.0381V31.9648C38.8182 32.3535 39.1302 32.6686 39.5152 32.6686Z" stroke="white" stroke-width="1.5"/>
</g>
<defs>
<filter id="filter0_dd_4664_8779" x="0" y="0" width="64" height="64" filterUnits="userSpaceOnUse" color-interpolation-filters="sRGB">
<feFlood flood-opacity="0" result="BackgroundImageFix"/>
<feColorMatrix in="SourceAlpha" type="matrix" values="0 0 0 0 0 0 0 0 0 0 0 0 0 0 0 0 0 0 127 0" result="hardAlpha"/>
<feMorphology radius="2" operator="dilate" in="SourceAlpha" result="effect1_dropShadow_4664_8779"/>
<feOffset dy="2"/>
<feGaussianBlur stdDeviation="3"/>
<feColorMatrix type="matrix" values="0 0 0 0 0 0 0 0 0 0 0 0 0 0 0 0 0 0 0.15 0"/>
<feBlend mode="normal" in2="BackgroundImageFix" result="effect1_dropShadow_4664_8779"/>
<feColorMatrix in="SourceAlpha" type="matrix" values="0 0 0 0 0 0 0 0 0 0 0 0 0 0 0 0 0 0 127 0" result="hardAlpha"/>
<feOffset dy="1"/>
<feGaussianBlur stdDeviation="1"/>
<feColorMatrix type="matrix" values="0 0 0 0 0 0 0 0 0 0 0 0 0 0 0 0 0 0 0.3 0"/>
<feBlend mode="normal" in2="effect1_dropShadow_4664_8779" result="effect2_dropShadow_4664_8779"/>
<feBlend mode="normal" in="SourceGraphic" in2="effect2_dropShadow_4664_8779" result="shape"/>
</filter>
</defs>
</svg>
