<svg width="64" height="64" viewBox="0 0 64 64" fill="none" xmlns="http://www.w3.org/2000/svg">
<g filter="url(#filter0_dd_4664_8776)">
<path d="M32 6C25.6362 6 19.5275 8.53013 15.0312 13.0294C10.5304 17.5304 8.00129 23.6347 8 30C8 36.3626 10.5312 42.4714 15.0312 46.9706C19.5275 51.4699 25.6362 54 32 54C38.3638 54 44.4725 51.4699 48.9688 46.9706C53.4688 42.4714 56 36.3626 56 30C56 23.6374 53.4688 17.5286 48.9688 13.0294C44.4725 8.53013 38.3638 6 32 6Z" fill="url(#paint0_linear_4664_8776)"/>
<path d="M18.8637 29.7461C25.8612 26.6981 30.5262 24.6886 32.8587 23.7176C39.5262 20.9452 40.9099 20.4637 41.8137 20.4474C42.0124 20.4442 42.4549 20.4933 42.7437 20.7268C42.9837 20.9237 43.0512 21.1899 43.0849 21.3768C43.1149 21.5636 43.1562 21.9892 43.1224 22.3215C42.7624 26.1165 41.1987 35.3257 40.4037 39.5763C40.0699 41.3748 39.4062 41.9778 38.7649 42.0367C37.3699 42.165 36.3124 41.1157 34.9624 40.2311C32.8512 38.8462 31.6587 37.9845 29.6074 36.6333C27.2374 35.0718 28.7749 34.2135 30.1249 32.811C30.4774 32.4438 36.6199 26.8582 36.7362 26.3516C36.7512 26.2882 36.7662 26.052 36.6237 25.9275C36.4849 25.8026 36.2787 25.8453 36.1287 25.8791C35.9149 25.9271 32.5437 28.1576 26.0037 32.5702C25.0474 33.228 24.1812 33.5486 23.4012 33.5317C22.5462 33.5133 20.8962 33.0472 19.6699 32.649C18.1699 32.1603 16.9737 31.902 17.0787 31.0721C17.1312 30.6401 17.7274 30.198 18.8637 29.7461Z" fill="white"/>
</g>
<defs>
<filter id="filter0_dd_4664_8776" x="0" y="0" width="64" height="64" filterUnits="userSpaceOnUse" color-interpolation-filters="sRGB">
<feFlood flood-opacity="0" result="BackgroundImageFix"/>
<feColorMatrix in="SourceAlpha" type="matrix" values="0 0 0 0 0 0 0 0 0 0 0 0 0 0 0 0 0 0 127 0" result="hardAlpha"/>
<feMorphology radius="2" operator="dilate" in="SourceAlpha" result="effect1_dropShadow_4664_8776"/>
<feOffset dy="2"/>
<feGaussianBlur stdDeviation="3"/>
<feColorMatrix type="matrix" values="0 0 0 0 0 0 0 0 0 0 0 0 0 0 0 0 0 0 0.15 0"/>
<feBlend mode="normal" in2="BackgroundImageFix" result="effect1_dropShadow_4664_8776"/>
<feColorMatrix in="SourceAlpha" type="matrix" values="0 0 0 0 0 0 0 0 0 0 0 0 0 0 0 0 0 0 127 0" result="hardAlpha"/>
<feOffset dy="1"/>
<feGaussianBlur stdDeviation="1"/>
<feColorMatrix type="matrix" values="0 0 0 0 0 0 0 0 0 0 0 0 0 0 0 0 0 0 0.3 0"/>
<feBlend mode="normal" in2="effect1_dropShadow_4664_8776" result="effect2_dropShadow_4664_8776"/>
<feBlend mode="normal" in="SourceGraphic" in2="effect2_dropShadow_4664_8776" result="shape"/>
</filter>
<linearGradient id="paint0_linear_4664_8776" x1="2408" y1="6" x2="2408" y2="4806" gradientUnits="userSpaceOnUse">
<stop stop-color="#2AABEE"/>
<stop offset="1" stop-color="#229ED9"/>
</linearGradient>
</defs>
</svg>
