<svg width="64" height="64" viewBox="0 0 64 64" fill="none" xmlns="http://www.w3.org/2000/svg">
<g filter="url(#filter0_dd_1879_12004)">
<circle cx="32" cy="30" r="24" fill="#5856D6"/>
<path d="M39.2291 33.2598L36.6891 32.9698C36.3904 32.9347 36.0877 32.9678 35.8036 33.0665C35.5196 33.1652 35.2616 33.327 35.0491 33.5398L33.2091 35.3798C30.3705 33.9357 28.0631 31.6284 26.6191 28.7898L28.4691 26.9398C28.8991 26.5098 29.1091 25.9098 29.0391 25.2998L28.7491 22.7798C28.6926 22.2919 28.4585 21.8418 28.0915 21.5154C27.7245 21.1889 27.2502 21.009 26.7591 21.0098H25.0291C23.8991 21.0098 22.9591 21.9498 23.0291 23.0798C23.5591 31.6198 30.3891 38.4398 38.9191 38.9698C40.0491 39.0398 40.9891 38.0998 40.9891 36.9698V35.2398C40.9991 34.2298 40.2391 33.3798 39.2291 33.2598Z" fill="#F8F8F9"/>
</g>
<defs>
<filter id="filter0_dd_1879_12004" x="0" y="0" width="64" height="64" filterUnits="userSpaceOnUse" color-interpolation-filters="sRGB">
<feFlood flood-opacity="0" result="BackgroundImageFix"/>
<feColorMatrix in="SourceAlpha" type="matrix" values="0 0 0 0 0 0 0 0 0 0 0 0 0 0 0 0 0 0 127 0" result="hardAlpha"/>
<feMorphology radius="2" operator="dilate" in="SourceAlpha" result="effect1_dropShadow_1879_12004"/>
<feOffset dy="2"/>
<feGaussianBlur stdDeviation="3"/>
<feColorMatrix type="matrix" values="0 0 0 0 0 0 0 0 0 0 0 0 0 0 0 0 0 0 0.15 0"/>
<feBlend mode="normal" in2="BackgroundImageFix" result="effect1_dropShadow_1879_12004"/>
<feColorMatrix in="SourceAlpha" type="matrix" values="0 0 0 0 0 0 0 0 0 0 0 0 0 0 0 0 0 0 127 0" result="hardAlpha"/>
<feOffset dy="1"/>
<feGaussianBlur stdDeviation="1"/>
<feColorMatrix type="matrix" values="0 0 0 0 0 0 0 0 0 0 0 0 0 0 0 0 0 0 0.3 0"/>
<feBlend mode="normal" in2="effect1_dropShadow_1879_12004" result="effect2_dropShadow_1879_12004"/>
<feBlend mode="normal" in="SourceGraphic" in2="effect2_dropShadow_1879_12004" result="shape"/>
</filter>
</defs>
</svg>
