<svg width="4" height="6" viewBox="0 0 4 6" fill="none" xmlns="http://www.w3.org/2000/svg">
<path d="M3.30917 2.81877L0.522669 0.163774C0.476175 0.119452 0.414404 0.0947266 0.350168 0.0947266C0.285933 0.0947266 0.224163 0.119452 0.177669 0.163774L0.174669 0.166774C0.152051 0.188261 0.134041 0.214124 0.121734 0.242791C0.109427 0.271457 0.103081 0.302328 0.103081 0.333524C0.103081 0.364721 0.109427 0.395591 0.121734 0.424258C0.134041 0.452924 0.152051 0.478788 0.174669 0.500274L2.79867 3.00027L0.174669 5.49927C0.152051 5.52076 0.134041 5.54662 0.121734 5.57529C0.109427 5.60396 0.103081 5.63483 0.103081 5.66602C0.103081 5.69722 0.109427 5.72809 0.121734 5.75676C0.134041 5.78542 0.152051 5.81129 0.174669 5.83277L0.177669 5.83577C0.224163 5.8801 0.285933 5.90482 0.350168 5.90482C0.414404 5.90482 0.476175 5.8801 0.522669 5.83577L3.30917 3.18077C3.33367 3.15743 3.35318 3.12934 3.36651 3.09823C3.37985 3.06712 3.38672 3.03362 3.38672 2.99977C3.38672 2.96593 3.37985 2.93243 3.36651 2.90132C3.35318 2.8702 3.33367 2.84212 3.30917 2.81877Z" fill="#3B3C37"/>
</svg>
