<svg width="114" height="53" viewBox="0 0 114 53" fill="none" xmlns="http://www.w3.org/2000/svg">
<path d="M85.1277 25.4696C85.1277 25.4696 85.0761 25.3661 84.973 25.2108C84.8183 24.9003 84.5605 24.4346 84.3543 24.1241L83.9934 23.4514C83.8902 23.2444 83.7871 23.0891 83.7871 23.0374C82.6528 20.4499 82.6528 15.896 83.0137 14.2918L83.1684 13.7226C83.3231 13.1016 83.5293 12.2736 83.8902 11.7044C84.4058 10.8764 85.3339 10.3589 85.5917 10.3072C85.7464 10.2554 85.9011 10.2554 86.0558 10.2554C86.6229 10.3072 87.2417 10.5142 87.6541 10.8247C88.0666 11.1869 88.5822 11.9631 88.6338 12.6359C88.6854 13.6191 88.5307 14.3436 88.1182 14.8611C87.9119 15.1198 87.6026 15.3786 87.2417 15.5338C86.9323 15.689 86.5714 15.6891 86.2105 15.5856C85.9011 15.4821 85.5402 15.2751 85.2308 14.9128C84.8699 14.5506 84.6121 14.1883 84.5605 14.0331L84.0965 12.8946L84.1996 14.1366C84.2512 14.7576 84.4574 15.2751 84.8183 15.6891C85.1277 16.0513 85.5402 16.2583 86.0042 16.3618C86.1073 16.3618 86.2105 16.4135 86.3651 16.4135C87.1901 16.4135 87.9119 16.2065 88.4791 15.7408L88.5307 15.6891C89.3041 15.0163 89.7681 13.9296 89.8197 12.6359C89.8197 11.3422 89.4072 10.1519 88.6854 9.4792C88.0666 8.90996 87.2417 8.75472 86.6229 8.65122C86.5714 8.65122 86.4683 8.65122 86.4167 8.65122C85.6949 8.59947 84.7668 8.90997 84.0965 9.3757C83.7356 9.5827 83.22 10.1519 82.5497 11.4974C82.4981 11.6009 82.4465 11.7044 82.4465 11.8079C81.9309 13.2051 81.8278 15.8443 81.8278 15.9478C81.7763 16.724 81.7763 17.5003 81.8278 18.173C81.4669 17.3968 81.0544 16.31 80.9513 15.8443C80.8997 15.7408 80.8482 15.5856 80.8482 15.5338C80.9513 15.2751 81.0029 15.0681 81.106 14.8093C81.7247 12.8946 82.6012 9.32396 81.3638 7.20226C81.1575 6.84002 80.4873 6.42602 79.8685 6.63302C79.4045 6.73652 79.0436 7.04701 78.7858 7.461C78.3733 8.18548 78.2186 9.2722 78.3733 10.7729C78.4764 12.2736 78.8889 13.7744 79.0436 14.3436C79.0951 14.5506 79.1467 14.7058 79.1467 14.7576L79.5592 15.9995C79.5076 16.103 79.5076 16.2583 79.456 16.4135C79.2498 17.0863 78.8889 18.38 78.5795 19.1045C78.4248 19.5185 78.1155 20.0877 77.7546 20.7604C77.7546 20.6569 77.8061 20.6052 77.8061 20.5017C78.2186 18.794 78.5795 16.103 78.2186 14.1366V14.0331C78.2186 13.9296 78.167 13.8261 78.167 13.6709C78.0639 13.1016 77.9092 12.3771 77.5999 11.7561C77.1874 10.9799 76.7233 10.3072 76.2077 9.89319C75.589 9.3757 74.6094 9.11696 74.3 9.06521C73.7844 9.01346 73.3204 9.06521 72.8048 9.16871C72.2891 9.27221 71.7735 9.63445 71.4126 10.0484C70.8455 10.6177 70.4845 11.6009 70.3814 12.4806C70.3299 13.1016 70.5877 14.6541 71.2064 15.4303C71.5157 15.7925 71.8767 16.0513 72.3923 16.1548C73.3719 16.4653 74.5062 16.1548 75.1765 15.3786C75.3312 15.2233 75.4343 15.0163 75.5375 14.8093L75.7437 14.3953L75.3312 14.4988C75.1765 14.5506 74.9703 14.7058 74.8156 14.8093C74.5062 15.0681 74.0938 15.3786 73.4235 15.4303C72.5985 15.5338 72.0313 15.0163 71.6704 13.9813C71.3611 12.9981 71.3611 11.7044 72.186 10.9282C72.9079 10.2037 73.9906 10.4107 74.764 10.6694C75.2281 10.8247 76.2077 11.8079 76.6718 13.4121C76.878 14.1366 77.2905 16.103 76.9296 18.2247L76.8265 18.7422C76.7233 19.5702 76.5687 20.5534 76.3624 21.3814C76.1562 22.4164 75.9499 23.1409 75.6921 24.1758L75.3828 25.3661H76.9811H77.1358L77.1874 25.2108C77.2389 25.0556 78.3217 21.7954 78.5795 21.2779C78.9404 20.3982 79.7654 18.4835 80.1779 17.1898C80.3326 17.552 80.4357 17.8107 80.5904 18.1212C80.6935 18.3282 80.9513 18.794 81.2091 19.3115C81.5185 19.8807 81.8278 20.5534 81.9309 20.7604C82.1887 21.4332 83.0653 23.1409 83.6324 24.1758C83.7871 24.4346 84.148 25.1073 84.2512 25.2108L84.3027 25.3143H85.4886L85.1277 25.4696ZM80.281 13.5674C80.2294 13.7226 80.1779 13.8778 80.1779 14.0331C79.9716 13.4639 79.817 12.8946 79.7138 12.2736C79.5592 11.4457 79.5076 10.6177 79.5076 9.84144V9.73794C79.5076 8.59947 79.6623 7.97849 79.9716 7.82324C80.0232 7.82324 80.0232 7.82324 80.0748 7.82324H80.1263C80.3841 7.97849 80.5904 8.85822 80.6419 9.42745C80.7966 11.0317 80.5388 12.5841 80.281 13.5674Z" fill="#22211F"/>
<path d="M113.899 31.4725L113.538 31.1103L112.971 30.5411C112.661 30.2306 112.507 29.6613 112.507 28.8851V24.4347C112.507 22.5718 112.042 21.0193 111.114 19.7256C110.547 18.9493 109.877 18.3284 109 17.8626C109.877 17.2416 110.65 16.4654 111.269 15.5339C112.3 13.9297 112.867 12.015 112.867 9.73806C112.867 6.84013 112.094 4.45969 110.547 2.75198C108.949 0.992521 106.783 0.112793 104.102 0.112793H100.287C100.08 0.112793 99.9258 0.268042 99.9258 0.475037V31.6795C99.9258 31.8865 100.08 32.0418 100.287 32.0418H103.38C103.587 32.0418 103.741 31.8865 103.741 31.6795V19.3116H104.412C107.35 19.3116 108.691 20.8123 108.691 24.0725V28.8334C108.691 29.8166 109.052 30.5928 109.774 31.1621C110.444 31.6795 111.321 31.99 112.352 31.99H113.641C113.796 31.99 113.899 31.8865 114.002 31.783C114.002 31.783 114.002 31.6278 113.899 31.4725ZM108.846 9.78981C108.846 12.1185 108.382 13.9297 107.454 15.1717C106.629 16.3102 105.391 16.8794 103.741 16.9311V2.59674C105.597 2.64848 106.835 3.16597 107.557 4.30444C108.382 5.54641 108.846 7.35762 108.846 9.78981Z" fill="#22211F"/>
<path d="M17.3759 0.112793H13.1479L15.1588 8.13385L12.5292 20.9675L7.42469 0.940772L7.21845 0.112793H2.88738L4.9498 8.13385L0.257802 30.955L0 32.2488H2.62958L6.39349 13.7227L10.8792 29.3508L12.0651 33.9047L12.8385 30.0236L16.5509 13.7745L21.1398 31.2655L21.4491 32.2488H25.7286L17.6337 0.940772L17.3759 0.112793Z" fill="#22211F"/>
<path d="M59.5525 0.112793H55.7886V36.1299C55.7886 38.3551 55.273 40.7356 54.2933 42.8573C52.2825 47.5146 47.5905 50.5161 42.3829 50.5161C39.8049 50.5161 37.33 49.7916 35.1644 48.4461C31.1943 45.9622 28.7709 41.8223 28.5131 37.0614C28.3069 33.4907 29.3897 30.0236 31.5036 27.2809L31.0396 28.9886C30.8849 29.6096 30.7302 30.1271 30.6787 30.4893C30.524 31.162 30.3693 31.8865 31.1943 32.197L31.2974 32.2488H32.8442L33.0505 31.6278C33.0505 31.576 33.1536 31.3173 33.2051 31.162L33.3083 30.7481C33.4114 30.4376 33.5145 29.9201 33.7723 28.9886C34.0301 27.9536 34.4426 26.4012 35.0613 24.1242C36.1441 23.3997 37.3815 22.8822 38.619 22.5718C38.8252 22.52 38.9799 22.4683 39.1861 22.4683L41.7126 32.3005H45.9405L45.5796 30.8516C45.5281 30.6446 45.4249 30.1271 45.0125 28.6781L44.8578 28.0054C44.6515 27.2809 44.4969 26.5047 44.2906 25.7284L43.5172 22.727C45.064 23.2445 46.5077 24.2277 47.7967 25.6767L47.9514 25.8319L49.1373 26.5047L48.5701 25.4697C47.178 22.8822 45.2703 21.1228 42.8985 20.3466L42.5891 19.1046C42.3313 18.0179 41.9188 16.4137 41.4548 14.6024L38.5159 3.06247C38.0002 1.14777 37.9487 0.837277 37.9487 0.785528L37.7424 0.112793H33.4114L36.041 10.2038L32.7411 22.5718C25.8836 27.3326 23.718 38.0446 28.2553 45.0825C31.349 50.1021 36.505 53 42.486 53C48.6732 53 54.2933 49.8433 57.5416 44.565C59.2431 41.2531 59.8103 39.1314 59.9134 35.4054V35.2502C59.9134 34.0082 59.9134 25.7802 59.965 19.1046V0.112793H59.5525ZM35.8347 20.8123L37.2784 15.3269L38.4643 19.9843C37.6393 20.1396 36.7112 20.4501 35.8347 20.8123Z" fill="#22211F"/>
<path d="M77.1351 0.26802L76.7227 0.319768L77.3929 2.85546L77.7539 2.80371C78.321 2.70021 78.8882 2.59671 79.4554 2.54497H79.61C79.7132 2.54497 79.8163 2.54497 79.971 2.54497C83.9927 2.54497 87.5503 4.66666 89.7674 8.44432C92.4486 12.9465 92.6033 18.6906 90.2315 23.0375C88.994 25.6249 86.8801 27.6431 84.3536 28.8333L84.0958 28.9368L84.7661 31.6278L85.127 31.4725C89.7159 29.8683 93.3251 26.2976 95.0266 21.6403C96.6765 17.1381 96.264 12.1702 93.8407 8.03033C90.5408 2.18272 84.0442 -0.973951 77.1351 0.26802Z" fill="#22211F"/>
<path d="M81.9304 29.6097C81.2601 29.765 80.5382 29.8167 79.8164 29.8167C77.754 29.8167 75.7947 29.1957 74.0416 28.0572C69.9684 25.3663 67.6997 20.3467 68.1637 14.9648C68.5762 9.89343 71.3089 5.54653 75.3306 3.63183L75.5884 3.47658L74.9181 0.785645L74.5572 0.940888C70.9996 2.23461 68.0606 4.6668 66.1013 8.03047C63.1624 12.9984 63.1624 19.0012 66.0498 24.1761C68.9371 29.2992 74.0932 32.3524 79.8164 32.3524C80.1773 32.3524 80.5382 32.3524 80.8992 32.3006C81.4663 32.2489 82.0335 32.1971 82.6006 32.0936L83.0131 32.0419L82.3428 29.4545L81.9304 29.6097Z" fill="#22211F"/>
</svg>
