<svg width="199" height="199" viewBox="0 0 199 199" fill="none" xmlns="http://www.w3.org/2000/svg">
<ellipse cx="99" cy="100" rx="98" ry="99" fill="white"/>
<path d="M131.399 156.599C131.399 156.499 130.999 155.899 130.599 154.999C129.599 153.199 127.899 150.099 126.899 148.199L124.799 144.199C124.099 142.899 123.599 141.899 123.599 141.799C116.599 125.799 116.499 98.0993 118.699 88.2993L119.499 84.7993C120.399 80.8993 121.699 75.8993 123.899 72.4993C126.999 67.4993 132.699 64.2993 134.299 63.8993C135.099 63.6993 136.099 63.5993 137.299 63.6993C140.699 63.8993 144.599 65.2993 146.999 67.1993C149.699 69.2993 152.699 74.1993 152.899 78.3993C153.199 84.2993 152.099 88.8993 149.599 92.0993C148.299 93.7993 146.599 95.1993 144.299 96.1993C142.299 97.1993 140.199 97.2993 137.999 96.5993C135.999 95.9993 133.899 94.5993 131.799 92.5993C129.599 90.3993 128.099 88.0993 127.799 87.1993L124.999 80.2993L125.699 87.7993C125.999 91.4993 127.399 94.7993 129.699 97.1993C131.699 99.3993 134.199 100.799 136.999 101.199C137.599 101.299 138.299 101.399 139.099 101.499C143.899 101.599 148.499 100.199 151.999 97.3993L152.299 97.0993C157.199 92.9993 159.999 86.1993 160.199 78.3993C160.299 70.4993 157.699 63.0993 153.199 59.0993C149.299 55.5993 144.299 54.5993 140.499 53.9993C140.099 53.8993 139.699 53.8993 139.099 53.8993C134.599 53.6993 129.099 55.3993 124.799 58.2993C122.699 59.6993 119.399 63.0993 115.399 71.1993C115.099 71.6993 114.899 72.3993 114.599 72.9993C111.399 81.4993 110.699 97.7993 110.599 98.3993C110.399 103.099 110.399 107.799 110.499 112.199C108.399 107.399 105.799 100.699 104.999 97.8993C104.799 97.0993 104.499 96.4993 104.399 96.0993C104.899 94.6993 105.499 93.0993 105.999 91.5993C109.899 79.6993 115.299 57.8993 107.699 45.0993C106.399 42.8993 102.299 40.4993 98.4986 41.4993C95.6986 42.1993 93.4986 43.9993 91.9986 46.6993C89.4986 50.9993 88.5986 57.7993 89.2986 66.8993C90.0986 76.2993 92.2986 85.3993 93.2986 88.8993C93.6986 90.2993 93.9986 91.1992 94.0986 91.3993L96.4986 99.0993C96.2986 99.5993 96.0986 100.499 95.6986 101.699C94.4986 105.899 92.1986 113.699 90.1986 118.199C88.7986 121.299 86.7986 125.399 85.1986 128.499C85.2986 127.999 85.4986 127.399 85.5986 126.999C88.0986 116.599 90.1986 100.099 88.1986 88.0993L88.0986 87.3993C87.9986 86.6992 87.8986 85.9993 87.6986 85.2993C87.0986 81.6993 86.0986 77.4993 84.0986 73.4993C81.6986 68.5993 78.7986 64.7993 75.5986 61.9993C71.8986 58.7993 65.7986 57.1993 63.8986 57.0993C60.5986 56.7993 57.7986 57.0993 54.7986 57.7993C51.7986 58.5993 48.5986 60.5993 46.0986 63.1993C42.6986 66.7993 40.2986 72.5993 39.8986 78.0993C39.5986 81.9993 40.9986 91.4993 44.7986 96.0993C46.6986 98.3993 48.8986 99.7993 51.9986 100.599C58.1986 102.399 64.8986 100.499 69.1986 95.6993C70.0986 94.6993 70.7986 93.5993 71.4986 92.2993L72.6986 89.8993L70.1986 90.6993C69.0986 90.9993 68.0986 91.7993 66.9986 92.6993C64.9986 94.2993 62.3986 96.2993 58.2986 96.5993C53.1986 97.0993 49.5986 94.0993 47.4986 87.8993C45.4986 81.9992 45.6986 73.9993 50.5986 69.2993C55.0986 64.8993 61.6986 65.9993 66.3986 67.6993C69.1986 68.6993 75.3986 74.6993 77.9986 84.5993C79.1986 89.0993 81.6986 100.999 79.6986 114.199L79.1986 117.299C78.3986 122.399 77.5986 128.299 76.1986 133.599C74.7986 139.899 73.6986 144.499 72.1986 150.799L70.3986 158.199H80.3986H81.2986L81.4986 157.399C81.6986 156.599 88.5986 136.399 89.8986 133.199C92.0986 127.999 97.0986 115.999 99.6986 108.199C100.599 110.499 101.199 111.999 102.099 113.999C102.699 115.299 104.199 118.199 105.699 121.199C107.499 124.799 109.599 128.799 110.199 130.199C111.799 134.199 117.199 144.799 120.699 151.199C121.599 152.799 123.799 156.799 124.399 157.699L124.699 158.199H132.099L131.399 156.599ZM101.599 83.5993C101.299 84.5993 101.099 85.5993 100.899 86.2993C99.3986 82.0993 98.5986 78.1993 98.0986 75.3993C97.1986 70.3993 96.7986 65.2993 96.8986 60.3993V59.7993C96.9986 52.8993 97.9986 48.9993 99.6986 48.0993C99.8986 47.9993 100.099 47.9993 100.199 47.9993C100.299 47.9993 100.499 47.9993 100.599 48.0993C102.199 48.9993 103.399 53.8993 103.899 58.0993C104.799 68.0993 103.199 77.4993 101.599 83.5993Z" fill="#22211F"/>
<path d="M185.598 49.8996C164.798 13.8996 124.798 -5.50037 82.2984 2.19963L79.8984 2.59963L83.8984 18.1996L85.9984 17.6996C89.4984 16.8996 93.0984 16.3996 96.3984 16.0996H97.3984C98.0984 16.0996 98.7984 16.0996 99.4984 16.0996C124.298 16.0996 146.298 29.1996 159.798 52.0996C176.198 79.6996 177.398 114.8 162.798 141.6C155.098 157.3 142.298 169.9 126.798 177L125.098 177.8L129.398 194.3L131.698 193.5C159.898 183.8 182.098 161.9 192.698 133.3C202.998 105.6 200.398 75.1996 185.598 49.8996Z" fill="#22211F"/>
<path d="M111.999 181.899C107.799 182.799 103.299 183.199 98.8992 183.199C86.2992 183.199 73.9992 179.399 63.2992 172.299C38.1992 155.899 24.2992 125.199 27.0992 92.1992C29.6992 60.9992 46.5992 34.4992 71.1992 22.8992L72.8992 22.0992L68.5992 5.69922L66.2992 6.49922C44.2992 14.3992 26.2992 29.3992 14.1992 49.8992C-3.90076 80.2992 -4.00075 117.199 13.8992 148.799C31.7992 180.199 63.3992 198.999 98.4992 198.999C100.799 198.999 102.999 198.899 105.199 198.799C108.599 198.599 112.199 198.199 115.799 197.599L118.199 197.199L114.099 181.499L111.999 181.899Z" fill="#22211F"/>
</svg>
