<svg width="16" height="16" viewBox="0 0 16 16" fill="none" xmlns="http://www.w3.org/2000/svg">
<path d="M10.5748 12.5965C10.5748 12.5965 10.5492 12.5453 10.4978 12.4685C10.4208 12.315 10.2924 12.0846 10.1897 11.9311L10.01 11.5984C9.95861 11.496 9.90725 11.4192 9.90725 11.3936C9.34237 10.114 9.34237 7.86181 9.52211 7.06843L9.59914 6.78691C9.67617 6.47979 9.77887 6.07031 9.9586 5.78879C10.2154 5.3793 10.6775 5.12337 10.8059 5.09778C10.883 5.07218 10.96 5.07218 11.037 5.07218C11.3195 5.09778 11.6276 5.20015 11.833 5.35371C12.0384 5.53286 12.2952 5.91675 12.3208 6.24946C12.3465 6.73572 12.2695 7.09403 12.0641 7.34996C11.9614 7.47792 11.8073 7.60588 11.6276 7.68266C11.4735 7.75944 11.2938 7.75944 11.114 7.70826C10.96 7.65707 10.7803 7.5547 10.6262 7.37555C10.4465 7.1964 10.3181 7.01725 10.2924 6.94047L10.0613 6.37742L10.1127 6.99165C10.1383 7.29877 10.241 7.5547 10.4208 7.75944C10.5748 7.93859 10.7803 8.04096 11.0113 8.09215C11.0627 8.09215 11.114 8.11774 11.1911 8.11774C11.6019 8.11774 11.9614 8.01537 12.2438 7.78504L12.2695 7.75944C12.6546 7.42673 12.8857 6.88928 12.9114 6.24946C12.9114 5.60964 12.706 5.021 12.3465 4.68829C12.0384 4.40677 11.6276 4.32999 11.3195 4.2788C11.2938 4.2788 11.2424 4.2788 11.2168 4.2788C10.8573 4.25321 10.3951 4.40677 10.0613 4.6371C9.88158 4.73948 9.62481 5.021 9.29102 5.68642C9.26534 5.7376 9.23967 5.78878 9.23967 5.83997C8.9829 6.53098 8.93155 7.83622 8.93155 7.88741C8.90587 8.2713 8.90587 8.6552 8.93155 8.9879C8.75181 8.60401 8.5464 8.06656 8.49505 7.83622C8.46937 7.78504 8.44369 7.70825 8.44369 7.68266C8.49505 7.5547 8.52072 7.45233 8.57208 7.32436C8.88019 6.37742 9.31669 4.61151 8.70046 3.5622C8.59775 3.38305 8.26396 3.17831 7.95584 3.28068C7.72475 3.33186 7.54502 3.48542 7.41663 3.69017C7.21122 4.04847 7.13419 4.58592 7.21122 5.32811C7.26257 6.07031 7.46799 6.8125 7.54502 7.09403C7.57069 7.1964 7.59637 7.27317 7.59637 7.29877L7.80178 7.913C7.77611 7.96419 7.77611 8.04097 7.75043 8.11774C7.64772 8.45045 7.46799 9.09028 7.31393 9.44858C7.2369 9.65332 7.08284 9.93484 6.9031 10.2675C6.9031 10.2164 6.92878 10.1908 6.92878 10.1396C7.13419 9.29502 7.31393 7.96418 7.13419 6.99165V6.94047C7.13419 6.88928 7.10852 6.8381 7.10852 6.76132C7.05716 6.4798 6.98013 6.1215 6.82607 5.81438C6.62066 5.43049 6.38958 5.09778 6.13281 4.89303C5.82469 4.6371 5.33684 4.50914 5.18278 4.48355C4.92602 4.45795 4.69493 4.48355 4.43816 4.53473C4.1814 4.58592 3.92463 4.76507 3.7449 4.96981C3.46246 5.25133 3.28272 5.7376 3.23137 6.17268C3.20569 6.47979 3.33407 7.24758 3.64219 7.63148C3.79625 7.81063 3.97599 7.93859 4.23275 7.98978C4.72061 8.14334 5.28549 7.98978 5.61928 7.60589C5.69631 7.52911 5.74766 7.42673 5.79902 7.32436L5.90172 7.11962L5.69631 7.1708C5.61928 7.1964 5.51658 7.27318 5.43955 7.32436C5.28549 7.45233 5.08008 7.60588 4.74628 7.63148C4.33546 7.68266 4.05301 7.42673 3.87328 6.91487C3.71922 6.42861 3.71922 5.78879 4.13004 5.40489C4.48951 5.04659 5.02872 5.14896 5.41387 5.27693C5.64496 5.35371 6.13281 5.83997 6.3639 6.63335C6.4666 6.99165 6.67201 7.96419 6.49228 9.0135L6.44093 9.26943C6.38957 9.67891 6.31255 10.1652 6.20984 10.5747C6.10713 11.0865 6.00443 11.4448 5.87605 11.9567L5.72198 12.5453H6.59499L6.62066 12.4685C6.64634 12.3918 7.18555 10.7794 7.31393 10.5235C7.49367 10.0884 7.90449 9.14146 8.1099 8.50164C8.18693 8.68079 8.23828 8.80875 8.31531 8.96231C8.36666 9.06468 8.49505 9.29502 8.62343 9.55095C8.77749 9.83247 8.93155 10.1652 8.9829 10.2675C9.11128 10.6003 9.54778 11.4448 9.83022 11.9567C9.90725 12.0847 10.087 12.4174 10.1383 12.4685L10.164 12.5197H10.7546L10.5748 12.5965ZM8.16125 6.71013C8.13558 6.78691 8.1099 6.86369 8.1099 6.94047C8.00719 6.65895 7.93016 6.37742 7.87881 6.07031C7.80178 5.66082 7.7761 5.25133 7.7761 4.86744V4.81625C7.7761 4.25321 7.85314 3.94609 8.00719 3.86932C8.03287 3.86932 8.03287 3.86932 8.05855 3.86932H8.08422C8.21261 3.94609 8.31531 4.38117 8.34099 4.6627C8.41802 5.45608 8.28963 6.22387 8.16125 6.71013Z" fill="black"/>
<path d="M6.59562 0.132552L6.39021 0.158145L6.724 1.4122L6.90374 1.38661C7.18618 1.33542 7.46862 1.28423 7.75106 1.25864H7.82809C7.87944 1.25864 7.9308 1.25864 8.00782 1.25864C10.0106 1.25864 11.7823 2.30795 12.8864 4.17624C14.2215 6.40282 14.2986 9.24364 13.1174 11.3934C12.5012 12.6731 11.4485 13.6712 10.1903 14.2599L10.0619 14.311L10.3957 15.6419L10.5755 15.5651C12.8607 14.7717 14.658 13.0058 15.5054 10.7024C16.327 8.47585 16.1216 6.01893 14.9148 3.97149C13.2715 1.07949 10.0363 -0.481678 6.59562 0.132552Z" fill="black"/>
<path d="M8.98358 14.6436C8.64979 14.7204 8.29032 14.7459 7.93085 14.7459C6.90379 14.7459 5.92808 14.4388 5.05508 13.8758C3.02664 12.545 1.89687 10.0624 2.12796 7.40077C2.33337 4.89267 3.69423 2.74286 5.69699 1.79592L5.82537 1.71914L5.49158 0.388308L5.31185 0.465086C3.54017 1.10491 2.07661 2.30778 1.1009 3.97132C-0.36266 6.42824 -0.362658 9.39703 1.07523 11.9563C2.51311 14.49 5.08076 16 7.93085 16C8.11058 16 8.29032 16 8.47005 15.9744C8.75249 15.9488 9.03493 15.9232 9.31737 15.872L9.52279 15.8464L9.18899 14.5668L8.98358 14.6436Z" fill="black"/>
</svg>
