<svg width="157" height="74" viewBox="0 0 157 74" fill="none" xmlns="http://www.w3.org/2000/svg">
<path d="M116.534 35.5997C116.534 35.5997 116.463 35.4563 116.322 35.2411C116.11 34.8109 115.757 34.1656 115.475 33.7353L114.981 32.8031C114.84 32.5163 114.698 32.3012 114.698 32.2295C113.146 28.6442 113.146 22.334 113.64 20.1111L113.851 19.3224C114.063 18.4619 114.345 17.3146 114.84 16.5258C115.545 15.3785 116.816 14.6615 117.169 14.5898C117.381 14.5181 117.592 14.518 117.804 14.518C118.58 14.5898 119.427 14.8766 119.992 15.3068C120.557 15.8088 121.263 16.8844 121.333 17.8165C121.404 19.179 121.192 20.1828 120.627 20.8999C120.345 21.2584 119.922 21.617 119.427 21.8321C119.004 22.0472 118.51 22.0472 118.016 21.9038C117.592 21.7604 117.098 21.4736 116.675 20.9716C116.181 20.4697 115.828 19.9677 115.757 19.7526L115.122 18.1751L115.263 19.896C115.334 20.7565 115.616 21.4736 116.11 22.0472C116.534 22.5491 117.098 22.836 117.733 22.9794C117.875 22.9794 118.016 23.0511 118.228 23.0511C119.357 23.0511 120.345 22.7643 121.121 22.1189L121.192 22.0472C122.251 21.115 122.886 19.6092 122.957 17.8165C122.957 16.0239 122.392 14.3746 121.404 13.4425C120.557 12.6537 119.427 12.4386 118.58 12.2952C118.51 12.2952 118.369 12.2952 118.298 12.2952C117.31 12.2235 116.039 12.6537 115.122 13.299C114.628 13.5859 113.922 14.3746 113.004 16.239C112.934 16.3824 112.863 16.5258 112.863 16.6692C112.157 18.6053 112.016 22.2623 112.016 22.4057C111.946 23.4813 111.946 24.5569 112.016 25.4891C111.522 24.4135 110.957 22.9077 110.816 22.2623C110.746 22.1189 110.675 21.9038 110.675 21.8321C110.816 21.4735 110.887 21.1867 111.028 20.8282C111.875 18.1751 113.075 13.2273 111.381 10.2874C111.099 9.78544 110.181 9.21179 109.334 9.49862C108.699 9.64203 108.205 10.0723 107.852 10.6459C107.287 11.6498 107.075 13.1556 107.287 15.2351C107.428 17.3146 107.993 19.3941 108.205 20.1828C108.275 20.4697 108.346 20.6848 108.346 20.7565L108.911 22.4774C108.84 22.6209 108.84 22.836 108.769 23.0511C108.487 23.9833 107.993 25.7759 107.569 26.7798C107.358 27.3535 106.934 28.1422 106.44 29.0744C106.44 28.931 106.511 28.8593 106.511 28.7159C107.075 26.3496 107.569 22.6208 107.075 19.896V19.7526C107.075 19.6092 107.005 19.4658 107.005 19.2507C106.864 18.4619 106.652 17.458 106.228 16.5975C105.664 15.5219 105.028 14.5898 104.323 14.0161C103.476 13.299 102.135 12.9405 101.711 12.8688C101.005 12.7971 100.37 12.8688 99.6641 13.0122C98.9583 13.1556 98.2524 13.6576 97.7583 14.2312C96.9819 15.02 96.4878 16.3824 96.3467 17.6014C96.2761 18.4619 96.629 20.6131 97.476 21.6887C97.8995 22.1906 98.3936 22.5492 99.0994 22.6926C100.441 23.1228 101.993 22.6926 102.911 21.617C103.123 21.4019 103.264 21.115 103.405 20.8282L103.687 20.2545L103.123 20.398C102.911 20.4697 102.629 20.6848 102.417 20.8282C101.993 21.1867 101.429 21.617 100.511 21.6887C99.3818 21.8321 98.6053 21.115 98.1113 19.6809C97.6878 18.3185 97.6878 16.5258 98.8171 15.4502C99.8053 14.4463 101.288 14.7332 102.346 15.0917C102.982 15.3068 104.323 16.6692 104.958 18.8921C105.24 19.896 105.805 22.6209 105.311 25.5608L105.17 26.2779C105.028 27.4252 104.817 28.7876 104.534 29.9349C104.252 31.369 103.97 32.3729 103.617 33.807L103.193 35.4563H105.381H105.593L105.664 35.2411C105.734 35.026 107.217 30.5085 107.569 29.7915C108.064 28.5725 109.193 25.9193 109.758 24.1267C109.969 24.6286 110.11 24.9872 110.322 25.4174C110.463 25.7042 110.816 26.3496 111.169 27.0666C111.593 27.8554 112.016 28.7876 112.157 29.0744C112.51 30.0066 113.71 32.3729 114.487 33.807C114.698 34.1656 115.192 35.0977 115.334 35.2411L115.404 35.3846H117.028L116.534 35.5997ZM109.899 19.1073C109.828 19.3224 109.758 19.5375 109.758 19.7526C109.475 18.9638 109.263 18.1751 109.122 17.3146C108.911 16.1673 108.84 15.02 108.84 13.9444V13.801C108.84 12.2235 109.052 11.363 109.475 11.1479C109.546 11.1479 109.546 11.1479 109.616 11.1479H109.687C110.04 11.363 110.322 12.582 110.393 13.3708C110.605 15.5936 110.252 17.7448 109.899 19.1073Z" fill="#22211F"/>
<path d="M155.919 43.9188L155.425 43.4169L154.649 42.6281C154.225 42.1978 154.013 41.4091 154.013 40.3335V34.1668C154.013 31.5853 153.378 29.4341 152.108 27.6415C151.331 26.5659 150.414 25.7054 149.214 25.0601C150.414 24.1996 151.472 23.124 152.319 21.8333C153.731 19.6104 154.507 16.9573 154.507 13.8022C154.507 9.78665 153.449 6.48816 151.331 4.12186C149.143 1.68385 146.179 0.464844 142.508 0.464844H137.285C137.003 0.464844 136.791 0.679966 136.791 0.96679V44.2056C136.791 44.4925 137.003 44.7076 137.285 44.7076H141.52C141.802 44.7076 142.014 44.4925 142.014 44.2056V27.0678H142.932C146.955 27.0678 148.79 29.1473 148.79 33.6648V40.2618C148.79 41.6242 149.284 42.6998 150.272 43.4886C151.19 44.2056 152.39 44.6359 153.802 44.6359H155.566C155.778 44.6359 155.919 44.4925 156.06 44.349C156.06 44.349 156.06 44.1339 155.919 43.9188ZM149.002 13.8739C149.002 17.1007 148.367 19.6104 147.096 21.3313C145.967 22.9089 144.273 23.6977 142.014 23.7694V3.90674C144.555 3.97845 146.249 4.69551 147.237 6.27304C148.367 7.99399 149.002 10.5037 149.002 13.8739Z" fill="#22211F"/>
<path d="M23.7866 0.464844H17.9988L20.7515 11.5793L17.1518 29.3624L10.164 1.61214L9.88168 0.464844H3.95267L6.77601 11.5793L0.352917 43.2017L0 44.9944H3.59975L8.75235 19.3236L14.8931 40.9789L16.5165 47.289L17.5753 41.911L22.6573 19.3953L28.9392 43.632L29.3627 44.9944H35.2211L24.1395 1.61214L23.7866 0.464844Z" fill="#22211F"/>
<path d="M81.5236 0.464844H76.371V50.3723C76.371 53.4557 75.6651 56.7542 74.324 59.6942C71.5713 66.1477 65.1482 70.3067 58.0193 70.3067C54.4901 70.3067 51.1021 69.3028 48.1376 67.4384C42.7027 63.9965 39.3852 58.26 39.0323 51.6631C38.75 46.7153 40.2322 41.911 43.1262 38.1106L42.4909 40.4769C42.2792 41.3374 42.0674 42.0544 41.9968 42.5564C41.7851 43.4886 41.5733 44.4924 42.7027 44.9227L42.8438 44.9944H44.9613L45.2437 44.1339C45.2437 44.0622 45.3848 43.7037 45.4554 43.4886L45.5966 42.9149C45.7378 42.4847 45.8789 41.7676 46.2318 40.4769C46.5848 39.0428 47.1494 36.8916 47.9964 33.7365C49.4787 32.7326 51.1727 32.0156 52.8667 31.5853C53.149 31.5136 53.3608 31.4419 53.6431 31.4419L57.1017 45.0661H62.8895L62.3954 43.0583C62.3249 42.7715 62.1837 42.0544 61.619 40.0467L61.4073 39.1145C61.1249 38.1106 60.9132 37.035 60.6309 35.9594L59.5721 31.8005C61.6896 32.5175 63.6659 33.8799 65.4305 35.8877L65.6423 36.1028L67.2657 37.035L66.4893 35.6009C64.5835 32.0156 61.9719 29.5776 58.7251 28.502L58.3016 26.781C57.9487 25.2752 57.384 23.0523 56.7488 20.5426L52.7255 4.5521C52.0197 1.89897 51.9491 1.46873 51.9491 1.39703L51.6668 0.464844H45.7378L49.3375 14.4476L44.8202 31.5853C35.4326 38.1823 32.4681 53.0255 38.6794 62.7775C42.9144 69.733 49.9728 73.7486 58.1604 73.7486C66.6304 73.7486 74.324 69.3745 78.7708 62.0605C81.1001 57.4713 81.8765 54.5313 82.0176 49.3685V49.1533C82.0176 47.4324 82.0176 36.0311 82.0882 26.781V0.464844H81.5236ZM49.0552 29.1473L51.0315 21.5465L52.6549 28C51.5256 28.2151 50.2551 28.6454 49.0552 29.1473Z" fill="#22211F"/>
<path d="M105.593 0.679978L105.028 0.751683L105.946 4.26529L106.44 4.19358C107.216 4.05017 107.993 3.90676 108.769 3.83505H108.981C109.122 3.83505 109.263 3.83505 109.475 3.83505C114.981 3.83505 119.851 6.775 122.886 12.0096C126.556 18.248 126.768 26.2074 123.521 32.2307C121.827 35.816 118.933 38.6126 115.475 40.2618L115.122 40.4052L116.039 44.1339L116.533 43.9188C122.815 41.6959 127.756 36.7482 130.085 30.2946C132.344 24.0562 131.779 17.1724 128.462 11.4359C123.945 3.33311 115.051 -1.04097 105.593 0.679978Z" fill="#22211F"/>
<path d="M112.157 41.3349C111.24 41.55 110.252 41.6217 109.263 41.6217C106.44 41.6217 103.758 40.7612 101.358 39.1837C95.782 35.455 92.6763 28.4995 93.3116 21.042C93.8762 14.0148 97.6172 7.9915 103.123 5.33837L103.476 5.12325L102.558 1.39453L102.064 1.60965C97.1937 3.4023 93.1704 6.7725 90.4882 11.4334C86.465 18.3172 86.465 26.6351 90.4177 33.8057C94.3703 40.9047 101.429 45.1353 109.263 45.1353C109.758 45.1353 110.252 45.1353 110.746 45.0636C111.522 44.9919 112.299 44.9202 113.075 44.7768L113.64 44.7051L112.722 41.1198L112.157 41.3349Z" fill="#22211F"/>
</svg>
