<svg width="33" height="32" viewBox="0 0 33 32" fill="none" xmlns="http://www.w3.org/2000/svg">
<path d="M16.5 0C12.2575 0 8.185 1.68675 5.1875 4.68625C2.18693 7.68696 0.500859 11.7565 0.5 16C0.5 20.2417 2.1875 24.3142 5.1875 27.3137C8.185 30.3132 12.2575 32 16.5 32C20.7425 32 24.815 30.3132 27.8125 27.3137C30.8125 24.3142 32.5 20.2417 32.5 16C32.5 11.7583 30.8125 7.68575 27.8125 4.68625C24.815 1.68675 20.7425 0 16.5 0Z" fill="url(#paint0_linear_1279_3571)"/>
<path d="M7.74213 15.8311C12.4071 13.7991 15.5171 12.4594 17.0721 11.8121C21.5171 9.96381 22.4396 9.64281 23.0421 9.63193C23.1746 9.62981 23.4696 9.66256 23.6621 9.81818C23.8221 9.94943 23.8671 10.1269 23.8896 10.2516C23.9096 10.3761 23.9371 10.6598 23.9146 10.8813C23.6746 13.4113 22.6321 19.5508 22.1021 22.3846C21.8796 23.5836 21.4371 23.9856 21.0096 24.0248C20.0796 24.1103 19.3746 23.4108 18.4746 22.8211C17.0671 21.8978 16.2721 21.3233 14.9046 20.4226C13.3246 19.3816 14.3496 18.8093 15.2496 17.8743C15.4846 17.6296 19.5796 13.9058 19.6571 13.5681C19.6671 13.5258 19.6771 13.3683 19.5821 13.2853C19.4896 13.2021 19.3521 13.2306 19.2521 13.2531C19.1096 13.2851 16.8621 14.7721 12.5021 17.7138C11.8646 18.1523 11.2871 18.3661 10.7671 18.3548C10.1971 18.3426 9.09713 18.0318 8.27963 17.7663C7.27963 17.4406 6.48213 17.2683 6.55213 16.7151C6.58713 16.4271 6.98463 16.1323 7.74213 15.8311Z" fill="white"/>
<defs>
<linearGradient id="paint0_linear_1279_3571" x1="1600.5" y1="0" x2="1600.5" y2="3200" gradientUnits="userSpaceOnUse">
<stop stop-color="#2AABEE"/>
<stop offset="1" stop-color="#229ED9"/>
</linearGradient>
</defs>
</svg>
