<svg width="32" height="32" viewBox="0 0 32 32" fill="none" xmlns="http://www.w3.org/2000/svg">
<rect width="32" height="32" rx="4" fill="#4C9A4E"/>
<path fill-rule="evenodd" clip-rule="evenodd" d="M22.678 11.2365C23.0727 11.5789 23.1096 12.1712 22.7608 12.5611L15.441 20.6837C15.3564 20.7775 15.2536 20.8537 15.1385 20.9079C15.0235 20.962 14.8985 20.993 14.7711 20.9989C14.6436 21.0049 14.5162 20.9857 14.3965 20.9425C14.2767 20.8993 14.167 20.8329 14.0737 20.7474L9.29995 16.3737C9.1163 16.2038 9.00864 15.9695 9.0005 15.7219C8.99236 15.4743 9.0844 15.2336 9.2565 15.0525C9.42861 14.8713 9.66678 14.7644 9.91895 14.7551C10.1711 14.7458 10.4168 14.8349 10.6022 15.0029L14.6631 18.7143L21.3337 11.3165C21.4169 11.2241 21.5178 11.1488 21.6307 11.0948C21.7436 11.0408 21.8662 11.0091 21.9915 11.0017C22.1169 10.9943 22.2425 11.0112 22.3612 11.0515C22.4798 11.0918 22.5892 11.1547 22.6831 11.2365H22.678Z" fill="#F8F8F9"/>
</svg>
