<svg width="4" height="21" viewBox="0 0 4 21" fill="none" xmlns="http://www.w3.org/2000/svg">
<path d="M0 2.50098C0 2.22098 -2.06754e-07 2.08298 0.0159998 1.96698C0.0669085 1.60039 0.236058 1.26044 0.497759 0.998735C0.75946 0.737034 1.09942 0.567885 1.466 0.516976C1.58 0.500976 1.72 0.500977 2 0.500977C2.28 0.500977 2.418 0.500976 2.534 0.516976C2.90058 0.567885 3.24054 0.737034 3.50224 0.998735C3.76394 1.26044 3.93309 1.60039 3.984 1.96698C4 2.08098 4 2.22098 4 2.50098C4 2.78098 4 2.91898 3.984 3.03498C3.93309 3.40156 3.76394 3.74152 3.50224 4.00322C3.24054 4.26492 2.90058 4.43407 2.534 4.48498C2.42 4.50098 2.28 4.50098 2 4.50098C1.72 4.50098 1.582 4.50098 1.466 4.48498C1.09942 4.43407 0.75946 4.26492 0.497759 4.00322C0.236058 3.74152 0.0669085 3.40156 0.0159998 3.03498C-2.06754e-07 2.92098 0 2.78098 0 2.50098ZM0 10.501C0 10.221 -2.06754e-07 10.083 0.0159998 9.96698C0.0669085 9.60039 0.236058 9.26044 0.497759 8.99874C0.75946 8.73703 1.09942 8.56789 1.466 8.51698C1.58 8.50098 1.72 8.50098 2 8.50098C2.28 8.50098 2.418 8.50098 2.534 8.51698C2.90058 8.56789 3.24054 8.73703 3.50224 8.99874C3.76394 9.26044 3.93309 9.60039 3.984 9.96698C4 10.081 4 10.221 4 10.501C4 10.781 4 10.919 3.984 11.035C3.93309 11.4016 3.76394 11.7415 3.50224 12.0032C3.24054 12.2649 2.90058 12.4341 2.534 12.485C2.42 12.501 2.28 12.501 2 12.501C1.72 12.501 1.582 12.501 1.466 12.485C1.09942 12.4341 0.75946 12.2649 0.497759 12.0032C0.236058 11.7415 0.0669085 11.4016 0.0159998 11.035C-2.06754e-07 10.921 0 10.781 0 10.501ZM0 18.501C0 18.223 -2.06754e-07 18.083 0.0159998 17.967C0.0672065 17.601 0.236241 17.2618 0.497514 17.0005C0.758786 16.7392 1.09807 16.5702 1.464 16.519C1.582 16.503 1.72 16.503 1.998 16.503C2.276 16.503 2.418 16.503 2.532 16.519C2.89793 16.5702 3.23721 16.7392 3.49849 17.0005C3.75976 17.2618 3.92879 17.601 3.98 17.967C3.996 18.083 3.996 18.223 3.996 18.501C3.996 18.779 3.996 18.919 3.98 19.035C3.92879 19.4009 3.75976 19.7402 3.49849 20.0015C3.23721 20.2627 2.89793 20.4318 2.532 20.483C2.416 20.499 2.276 20.499 1.998 20.499C1.72 20.499 1.58 20.499 1.464 20.483C1.09807 20.4318 0.758786 20.2627 0.497514 20.0015C0.236241 19.7402 0.0672065 19.4009 0.0159998 19.035C-2.06754e-07 18.919 0 18.779 0 18.501Z" fill="#676767"/>
</svg>
