<svg width="30" height="30" viewBox="0 0 30 30" fill="none" xmlns="http://www.w3.org/2000/svg">
<path d="M0 24.1002V29.1668C0 29.6335 0.366667 30.0002 0.833333 30.0002H5.9C6.11667 30.0002 6.33333 29.9168 6.48333 29.7502L24.6833 11.5668L18.4333 5.31683L0.25 23.5002C0.0833335 23.6668 0 23.8668 0 24.1002ZM29.5167 6.7335C29.6712 6.57931 29.7937 6.39616 29.8774 6.19454C29.961 5.99292 30.0041 5.77678 30.0041 5.5585C30.0041 5.34022 29.961 5.12408 29.8774 4.92246C29.7937 4.72084 29.6712 4.53769 29.5167 4.3835L25.6167 0.4835C25.4625 0.328994 25.2793 0.206415 25.0777 0.122779C24.8761 0.0391437 24.6599 -0.00390625 24.4417 -0.00390625C24.2234 -0.00390625 24.0072 0.0391437 23.8056 0.122779C23.604 0.206415 23.4209 0.328994 23.2667 0.4835L20.2167 3.5335L26.4667 9.7835L29.5167 6.7335Z" fill="#4C9A4E"/>
</svg>
