<svg width="28" height="28" viewBox="0 0 28 28" fill="none" xmlns="http://www.w3.org/2000/svg">
<path fill-rule="evenodd" clip-rule="evenodd" d="M27.3337 14.0013C27.3337 21.3653 21.3643 27.3346 14.0003 27.3346C6.63633 27.3346 0.666992 21.3653 0.666992 14.0013C0.666992 6.6373 6.63633 0.667969 14.0003 0.667969C21.3643 0.667969 27.3337 6.6373 27.3337 14.0013ZM12.667 8.66797C12.667 9.02159 12.8075 9.36073 13.0575 9.61078C13.3076 9.86083 13.6467 10.0013 14.0003 10.0013H14.011C14.3646 10.0013 14.7038 9.86083 14.9538 9.61078C15.2039 9.36073 15.3443 9.02159 15.3443 8.66797C15.3443 8.31435 15.2039 7.97521 14.9538 7.72516C14.7038 7.47511 14.3646 7.33464 14.011 7.33464H14.0003C13.6467 7.33464 13.3076 7.47511 13.0575 7.72516C12.8075 7.97521 12.667 8.31435 12.667 8.66797ZM14.0003 20.668C14.3539 20.668 14.6931 20.5275 14.9431 20.2774C15.1932 20.0274 15.3337 19.6883 15.3337 19.3346V12.668C15.3337 12.3143 15.1932 11.9752 14.9431 11.7252C14.6931 11.4751 14.3539 11.3346 14.0003 11.3346C13.6467 11.3346 13.3076 11.4751 13.0575 11.7252C12.8075 11.9752 12.667 12.3143 12.667 12.668V19.3346C12.667 19.6883 12.8075 20.0274 13.0575 20.2774C13.3076 20.5275 13.6467 20.668 14.0003 20.668Z" fill="#4C9A4E"/>
</svg>
