<svg width="41" height="40" viewBox="0 0 41 40" fill="none" xmlns="http://www.w3.org/2000/svg">
<path opacity="0.5" d="M3.83301 26.667C3.83301 21.953 3.83301 19.596 5.29747 18.1315C6.76194 16.667 9.11896 16.667 13.833 16.667H27.1663C31.8803 16.667 34.2373 16.667 35.7018 18.1315C37.1663 19.596 37.1663 21.953 37.1663 26.667C37.1663 31.381 37.1663 33.738 35.7018 35.2025C34.2373 36.667 31.8803 36.667 27.1663 36.667H13.833C9.11896 36.667 6.76194 36.667 5.29747 35.2025C3.83301 33.738 3.83301 31.381 3.83301 26.667Z" fill="#323232"/>
<path d="M11.75 13.333C11.75 8.50052 15.6675 4.58301 20.5 4.58301C25.3325 4.58301 29.25 8.50052 29.25 13.333V16.6723C30.1957 16.6812 31.0225 16.703 31.75 16.7573V13.333C31.75 7.11981 26.7132 2.08301 20.5 2.08301C14.2868 2.08301 9.25 7.11981 9.25 13.333V16.7573C9.97752 16.703 10.8044 16.6812 11.75 16.6723V13.333Z" fill="#323232"/>
</svg>
