<svg width="30" height="36" viewBox="0 0 30 36" fill="none" xmlns="http://www.w3.org/2000/svg">
<g filter="url(#filter0_d_4974_9974)">
<path fill-rule="evenodd" clip-rule="evenodd" d="M25 11C25 18.7778 15 25.4444 15 25.4444C15 25.4444 5 18.7778 5 11C5 5.47715 9.47715 1 15 1C20.5228 1 25 5.47715 25 11Z" fill="#010100"/>
<path fill-rule="evenodd" clip-rule="evenodd" d="M25 11C25 18.7778 15 25.4444 15 25.4444C15 25.4444 5 18.7778 5 11C5 5.47715 9.47715 1 15 1C20.5228 1 25 5.47715 25 11Z" stroke="black" stroke-width="2" stroke-linecap="round" stroke-linejoin="round"/>
</g>
<path fill-rule="evenodd" clip-rule="evenodd" d="M15 14C16.6569 14 18 12.6569 18 11C18 9.34315 16.6569 8 15 8C13.3431 8 12 9.34315 12 11C12 12.6569 13.3431 14 15 14Z" fill="white" stroke="white" stroke-width="2" stroke-linecap="round" stroke-linejoin="round"/>
<defs>
<filter id="filter0_d_4974_9974" x="0" y="0" width="30" height="35.4443" filterUnits="userSpaceOnUse" color-interpolation-filters="sRGB">
<feFlood flood-opacity="0" result="BackgroundImageFix"/>
<feColorMatrix in="SourceAlpha" type="matrix" values="0 0 0 0 0 0 0 0 0 0 0 0 0 0 0 0 0 0 127 0" result="hardAlpha"/>
<feOffset dy="5"/>
<feGaussianBlur stdDeviation="2"/>
<feComposite in2="hardAlpha" operator="out"/>
<feColorMatrix type="matrix" values="0 0 0 0 0 0 0 0 0 0 0 0 0 0 0 0 0 0 0.41 0"/>
<feBlend mode="normal" in2="BackgroundImageFix" result="effect1_dropShadow_4974_9974"/>
<feBlend mode="normal" in="SourceGraphic" in2="effect1_dropShadow_4974_9974" result="shape"/>
</filter>
</defs>
</svg>
