<svg width="64" height="64" viewBox="0 0 64 64" fill="none" xmlns="http://www.w3.org/2000/svg">
<g filter="url(#filter0_dd_949_6514)">
<circle cx="32" cy="30" r="24" fill="#6D19DA"/>
<path d="M23 38.29V23C23 22.4696 23.2107 21.9609 23.5858 21.5858C23.9609 21.2107 24.4696 21 25 21H39C39.5304 21 40.0391 21.2107 40.4142 21.5858C40.7893 21.9609 41 22.4696 41 23V33C41 33.5304 40.7893 34.0391 40.4142 34.4142C40.0391 34.7893 39.5304 35 39 35H27.961C27.6612 35 27.3653 35.0675 27.0951 35.1973C26.8249 35.3271 26.5874 35.516 26.4 35.75L24.069 38.664C23.9914 38.7612 23.8856 38.8319 23.766 38.8664C23.6465 38.9008 23.5193 38.8972 23.4019 38.8561C23.2845 38.815 23.1827 38.7385 23.1107 38.6371C23.0387 38.5357 23 38.4144 23 38.29Z" fill="white" stroke="white" stroke-width="1.5"/>
</g>
<defs>
<filter id="filter0_dd_949_6514" x="0" y="0" width="64" height="64" filterUnits="userSpaceOnUse" color-interpolation-filters="sRGB">
<feFlood flood-opacity="0" result="BackgroundImageFix"/>
<feColorMatrix in="SourceAlpha" type="matrix" values="0 0 0 0 0 0 0 0 0 0 0 0 0 0 0 0 0 0 127 0" result="hardAlpha"/>
<feMorphology radius="2" operator="dilate" in="SourceAlpha" result="effect1_dropShadow_949_6514"/>
<feOffset dy="2"/>
<feGaussianBlur stdDeviation="3"/>
<feColorMatrix type="matrix" values="0 0 0 0 0 0 0 0 0 0 0 0 0 0 0 0 0 0 0.15 0"/>
<feBlend mode="normal" in2="BackgroundImageFix" result="effect1_dropShadow_949_6514"/>
<feColorMatrix in="SourceAlpha" type="matrix" values="0 0 0 0 0 0 0 0 0 0 0 0 0 0 0 0 0 0 127 0" result="hardAlpha"/>
<feOffset dy="1"/>
<feGaussianBlur stdDeviation="1"/>
<feColorMatrix type="matrix" values="0 0 0 0 0 0 0 0 0 0 0 0 0 0 0 0 0 0 0.3 0"/>
<feBlend mode="normal" in2="effect1_dropShadow_949_6514" result="effect2_dropShadow_949_6514"/>
<feBlend mode="normal" in="SourceGraphic" in2="effect2_dropShadow_949_6514" result="shape"/>
</filter>
</defs>
</svg>
