<svg width="25" height="24" viewBox="0 0 25 24" fill="none" xmlns="http://www.w3.org/2000/svg">
<path d="M12.5 0C9.31812 0 6.26375 1.26506 4.01562 3.51469C1.7652 5.76522 0.500644 8.81734 0.5 12C0.5 15.1813 1.76562 18.2357 4.01562 20.4853C6.26375 22.7349 9.31812 24 12.5 24C15.6819 24 18.7362 22.7349 20.9844 20.4853C23.2344 18.2357 24.5 15.1813 24.5 12C24.5 8.81869 23.2344 5.76431 20.9844 3.51469C18.7362 1.26506 15.6819 0 12.5 0Z" fill="url(#paint0_linear_6704_33203)"/>
<path d="M5.93282 11.8721C9.43157 10.3481 11.7641 9.34332 12.9303 8.85782C16.2641 7.47163 16.9559 7.23088 17.4078 7.22273C17.5072 7.22113 17.7284 7.2457 17.8728 7.36241C17.9928 7.46085 18.0266 7.59398 18.0434 7.68745C18.0584 7.78082 18.0791 7.99363 18.0622 8.15976C17.8822 10.0573 17.1003 14.6619 16.7028 16.7872C16.5359 17.6864 16.2041 17.9879 15.8834 18.0174C15.1859 18.0815 14.6572 17.5569 13.9822 17.1146C12.9266 16.4221 12.3303 15.9913 11.3047 15.3157C10.1197 14.5349 10.8884 14.1058 11.5634 13.4045C11.7397 13.2209 14.8109 10.4281 14.8691 10.1748C14.8766 10.1431 14.8841 10.025 14.8128 9.96276C14.7434 9.90032 14.6403 9.9217 14.5653 9.93857C14.4584 9.96257 12.7728 11.0778 9.50282 13.2841C9.02469 13.613 8.59157 13.7733 8.20157 13.7649C7.77407 13.7557 6.94907 13.5226 6.33595 13.3235C5.58595 13.0792 4.98782 12.95 5.04032 12.5351C5.06657 12.3191 5.3647 12.098 5.93282 11.8721Z" fill="white"/>
<defs>
<linearGradient id="paint0_linear_6704_33203" x1="1200.5" y1="0" x2="1200.5" y2="2400" gradientUnits="userSpaceOnUse">
<stop stop-color="#2AABEE"/>
<stop offset="1" stop-color="#229ED9"/>
</linearGradient>
</defs>
</svg>
