<svg width="10" height="6" viewBox="0 0 10 6" fill="none" xmlns="http://www.w3.org/2000/svg">
<path d="M5.27135 4.96522L9.25385 0.785468C9.32033 0.715726 9.35742 0.623071 9.35742 0.526718C9.35742 0.430365 9.32033 0.337709 9.25385 0.267968L9.24935 0.263468C9.21712 0.229541 9.17833 0.202527 9.13533 0.184066C9.09233 0.165606 9.04602 0.156086 8.99923 0.156086C8.95243 0.156086 8.90612 0.165606 8.86312 0.184066C8.82013 0.202527 8.78133 0.229541 8.7491 0.263468L4.9991 4.19947L1.2506 0.263468C1.21837 0.229541 1.17958 0.202527 1.13658 0.184066C1.09358 0.165606 1.04727 0.156086 1.00048 0.156086C0.953681 0.156086 0.907375 0.165606 0.864376 0.184066C0.821376 0.202527 0.782581 0.229541 0.750351 0.263468L0.745851 0.267968C0.679367 0.337709 0.642279 0.430365 0.642279 0.526718C0.642279 0.623071 0.679367 0.715726 0.745851 0.785468L4.72835 4.96522C4.76337 5.00198 4.8055 5.03124 4.85217 5.05124C4.89883 5.07123 4.94908 5.08154 4.99985 5.08154C5.05062 5.08154 5.10087 5.07123 5.14754 5.05124C5.19421 5.03124 5.23633 5.00198 5.27135 4.96522Z" fill="#22211F"/>
</svg>
